<svg id="svg" version="1.1" xmlns="http://www.w3.org/2000/svg" xmlns:xlink="http://www.w3.org/1999/xlink" width="400" height="400" viewBox="0, 0, 400,400"><g id="svgg"><path id="path0" d="M198.619 57.168 C 198.480 57.394,197.518 57.834,196.483 58.146 C 194.504 58.741,190.319 60.861,187.480 62.707 C 186.556 63.308,185.597 63.890,185.349 64.000 C 183.853 64.663,177.057 72.003,176.090 74.000 C 175.824 74.550,175.429 75.270,175.213 75.600 C 174.996 75.930,174.540 76.830,174.199 77.600 C 172.684 81.018,171.888 81.899,169.853 82.409 C 168.944 82.637,167.750 83.068,167.200 83.367 C 166.650 83.666,165.120 84.144,163.800 84.429 C 162.480 84.714,161.040 85.170,160.600 85.442 C 160.160 85.715,158.768 86.233,157.507 86.595 C 156.246 86.957,155.126 87.396,155.018 87.571 C 154.909 87.747,153.961 88.131,152.910 88.425 C 151.860 88.719,150.390 89.374,149.644 89.880 C 148.898 90.386,147.953 90.800,147.544 90.800 C 147.135 90.800,146.800 90.953,146.800 91.139 C 146.800 91.326,146.035 91.810,145.100 92.214 C 144.165 92.619,143.118 93.184,142.773 93.471 C 142.429 93.757,141.529 94.224,140.773 94.508 C 139.065 95.151,137.151 96.268,135.307 97.700 C 134.528 98.305,133.645 98.800,133.345 98.800 C 133.045 98.800,132.800 98.963,132.800 99.162 C 132.800 99.361,131.855 100.081,130.700 100.762 C 127.406 102.704,127.046 102.955,126.483 103.700 C 126.193 104.085,125.786 104.400,125.581 104.400 C 125.051 104.400,121.728 106.985,119.600 109.051 C 118.610 110.013,117.671 110.800,117.514 110.800 C 116.977 110.800,104.896 122.612,103.200 124.795 C 102.650 125.503,101.483 126.829,100.606 127.741 C 99.729 128.654,98.829 129.697,98.606 130.061 C 98.383 130.424,97.120 132.102,95.800 133.789 C 94.480 135.476,93.130 137.268,92.800 137.770 C 92.028 138.945,90.884 140.515,89.500 142.295 C 88.895 143.073,88.400 143.933,88.400 144.206 C 88.400 144.479,88.128 144.928,87.795 145.204 C 87.463 145.480,86.826 146.447,86.381 147.353 C 84.754 150.664,84.052 151.859,83.433 152.373 C 83.085 152.662,82.800 153.121,82.800 153.393 C 82.800 153.666,82.395 154.498,81.900 155.244 C 81.405 155.990,80.749 157.320,80.443 158.200 C 80.137 159.080,79.552 160.229,79.143 160.754 C 78.734 161.279,78.400 161.914,78.400 162.165 C 78.400 162.416,78.086 163.067,77.702 163.611 C 76.966 164.654,75.573 167.788,74.507 170.800 C 74.157 171.790,73.641 172.960,73.361 173.400 C 73.081 173.840,72.634 175.100,72.368 176.200 C 72.101 177.300,71.661 178.650,71.390 179.200 C 71.118 179.750,70.764 180.830,70.603 181.600 C 70.441 182.370,69.889 183.900,69.376 185.000 C 68.863 186.100,68.152 188.440,67.795 190.200 C 67.439 191.960,66.906 194.390,66.611 195.600 C 66.315 196.810,65.956 199.060,65.812 200.600 C 65.669 202.140,65.276 204.912,64.940 206.761 C 62.928 217.825,65.524 243.633,69.579 252.874 C 69.996 253.823,70.465 255.320,70.622 256.200 C 70.780 257.080,71.229 258.438,71.621 259.219 C 72.013 259.999,72.456 261.292,72.606 262.092 C 72.756 262.893,73.221 263.857,73.640 264.236 C 74.058 264.614,74.400 265.171,74.400 265.473 C 74.400 266.221,77.966 273.337,79.675 276.000 C 80.028 276.550,80.440 277.413,80.591 277.918 C 80.742 278.423,81.227 279.233,81.669 279.718 C 82.442 280.567,83.465 281.941,85.600 285.000 C 86.150 285.788,87.110 287.101,87.734 287.916 C 89.141 289.757,96.185 297.376,97.768 298.771 C 98.411 299.337,100.211 300.944,101.768 302.342 C 103.326 303.740,105.050 305.176,105.600 305.533 C 106.150 305.890,106.690 306.294,106.800 306.431 C 106.910 306.568,107.400 306.891,107.889 307.148 C 108.378 307.406,109.818 308.479,111.089 309.532 C 112.360 310.586,113.670 311.569,114.000 311.717 C 114.330 311.865,115.680 312.615,117.000 313.384 C 118.320 314.153,120.165 315.154,121.100 315.609 C 122.035 316.065,122.800 316.609,122.800 316.819 C 122.800 317.028,123.362 317.200,124.049 317.200 C 125.062 317.200,125.212 317.096,124.843 316.652 C 124.431 316.156,123.918 315.157,121.006 309.189 C 120.520 308.193,119.989 306.669,119.827 305.803 C 119.664 304.936,119.273 303.729,118.958 303.119 C 116.125 297.640,115.813 276.577,118.414 266.400 C 119.829 260.865,120.289 259.289,121.679 255.213 C 123.788 249.029,123.835 249.118,117.000 246.426 C 115.149 245.697,112.637 244.322,111.200 243.251 C 110.650 242.841,109.187 241.858,107.950 241.065 C 95.051 232.803,83.465 214.363,81.591 199.114 C 79.906 185.410,82.244 168.832,86.825 162.000 C 87.193 161.450,87.616 160.611,87.764 160.135 C 89.351 155.017,99.224 143.293,106.600 137.766 C 111.808 133.863,122.664 128.571,127.000 127.821 C 127.880 127.668,129.770 127.200,131.200 126.781 C 136.826 125.129,156.358 125.046,163.800 126.641 C 165.340 126.972,167.770 127.423,169.200 127.643 C 174.110 128.402,182.765 131.368,186.600 133.608 C 187.700 134.250,189.320 135.163,190.200 135.637 C 191.935 136.571,192.479 137.028,196.400 140.840 C 200.923 145.238,200.415 145.219,204.455 141.145 C 211.300 134.241,220.246 129.853,232.076 127.598 C 234.344 127.166,237.100 126.636,238.200 126.421 C 245.088 125.075,263.982 125.214,269.400 126.652 C 270.720 127.002,272.790 127.507,274.000 127.775 C 280.090 129.123,289.725 133.979,295.800 138.763 C 301.268 143.070,308.037 150.537,310.642 155.138 C 311.059 155.874,311.887 157.314,312.482 158.338 C 313.077 159.362,313.847 160.830,314.192 161.600 C 314.538 162.370,315.021 163.353,315.266 163.783 C 316.029 165.127,317.642 170.057,318.412 173.400 C 318.817 175.160,319.375 177.410,319.652 178.400 C 320.479 181.350,320.368 197.617,319.502 200.400 C 319.125 201.610,318.640 203.631,318.424 204.890 C 318.208 206.150,317.779 207.680,317.472 208.290 C 317.164 208.901,316.792 209.900,316.646 210.511 C 316.499 211.122,315.934 212.596,315.389 213.787 C 314.844 214.978,314.208 216.368,313.975 216.876 C 313.742 217.384,313.068 218.637,312.476 219.660 C 311.884 220.683,310.991 222.258,310.492 223.160 C 309.992 224.062,309.407 224.800,309.192 224.800 C 308.976 224.800,308.800 225.054,308.800 225.364 C 308.800 227.190,298.378 237.765,293.400 240.989 C 292.080 241.844,289.680 243.411,288.066 244.472 C 286.453 245.532,284.878 246.400,284.566 246.400 C 284.254 246.400,282.741 246.985,281.204 247.700 C 277.902 249.235,277.674 250.070,279.351 254.492 C 287.005 274.682,286.681 296.419,278.482 312.750 C 276.143 317.409,276.217 317.200,276.921 317.200 C 277.682 317.200,286.499 312.293,288.675 310.658 C 289.596 309.966,291.476 308.590,292.853 307.600 C 300.348 302.211,310.229 292.661,314.302 286.869 C 315.126 285.698,316.536 283.808,317.436 282.669 C 318.336 281.531,320.282 278.399,321.759 275.709 C 323.237 273.020,324.602 270.722,324.794 270.604 C 324.985 270.486,325.358 269.716,325.621 268.894 C 325.885 268.072,326.321 267.130,326.590 266.800 C 326.859 266.470,327.362 265.390,327.708 264.400 C 328.055 263.410,329.447 259.450,330.803 255.600 C 332.159 251.750,333.447 247.700,333.666 246.600 C 333.886 245.500,334.414 243.070,334.842 241.200 C 335.269 239.330,335.795 235.730,336.011 233.200 C 336.228 230.670,336.566 226.980,336.762 225.000 C 337.224 220.352,336.151 200.416,335.372 199.154 C 335.269 198.988,334.832 196.995,334.401 194.726 C 333.970 192.457,333.353 189.700,333.030 188.600 C 331.972 184.995,329.526 177.835,328.755 176.089 C 328.340 175.148,328.000 174.099,328.000 173.756 C 328.000 172.668,324.554 165.169,321.272 159.116 C 320.352 157.420,319.600 155.863,319.600 155.656 C 319.600 155.450,318.889 154.137,318.021 152.740 C 317.152 151.343,316.054 149.480,315.581 148.600 C 315.108 147.720,314.018 145.967,313.160 144.705 C 312.302 143.442,311.600 142.260,311.600 142.078 C 311.600 141.761,305.840 134.046,304.673 132.800 C 304.364 132.470,303.877 131.750,303.591 131.200 C 303.305 130.650,302.124 129.210,300.966 128.000 C 298.811 125.748,298.146 124.997,296.400 122.842 C 294.911 121.006,292.795 118.800,292.521 118.800 C 292.182 118.800,287.200 113.630,287.200 113.278 C 287.200 113.120,286.861 112.812,286.446 112.595 C 285.186 111.935,281.257 108.841,279.309 106.975 C 278.299 106.007,276.286 104.477,274.836 103.576 C 273.386 102.674,271.480 101.405,270.600 100.755 C 266.747 97.908,263.261 95.710,261.200 94.828 C 260.650 94.592,259.840 94.183,259.400 93.919 C 258.960 93.655,258.007 93.130,257.282 92.753 C 256.557 92.376,255.731 91.875,255.447 91.639 C 255.163 91.404,254.145 90.934,253.185 90.595 C 252.225 90.256,251.161 89.730,250.820 89.427 C 250.479 89.123,249.480 88.682,248.600 88.447 C 247.720 88.212,246.640 87.768,246.200 87.461 C 245.760 87.154,244.770 86.774,244.000 86.616 C 243.230 86.459,241.880 86.008,241.000 85.614 C 240.120 85.220,238.500 84.671,237.400 84.395 C 236.300 84.118,235.040 83.674,234.600 83.407 C 234.160 83.140,232.540 82.694,231.000 82.415 C 229.460 82.137,227.836 81.682,227.390 81.405 C 226.945 81.127,225.595 80.767,224.390 80.604 C 219.739 79.975,218.637 76.929,219.646 67.487 C 220.175 62.531,220.113 62.370,218.096 63.483 C 217.273 63.937,216.150 64.445,215.600 64.612 C 215.050 64.779,214.043 65.339,213.362 65.858 C 212.681 66.376,211.870 66.800,211.558 66.800 C 211.247 66.800,210.768 67.160,210.493 67.600 C 210.218 68.040,209.735 68.400,209.419 68.400 C 209.104 68.400,208.610 68.715,208.323 69.100 C 207.803 69.796,205.319 71.835,204.059 72.600 C 203.697 72.820,202.915 73.493,202.322 74.096 C 199.469 76.997,197.978 72.677,199.183 65.000 C 200.042 59.527,199.742 55.353,198.619 57.168 M135.800 151.214 C 134.260 151.635,132.573 151.984,132.050 151.989 C 131.059 152.000,128.152 153.142,123.400 155.386 C 116.333 158.724,107.313 167.356,103.758 174.183 C 101.619 178.292,101.228 179.164,100.429 181.600 C 96.552 193.419,97.311 206.433,102.504 217.200 C 104.067 220.439,105.808 223.320,106.900 224.470 C 107.177 224.762,108.213 225.982,109.202 227.182 C 133.709 256.925,183.007 243.428,190.157 205.018 C 190.716 202.012,190.452 202.089,200.400 202.046 C 210.310 202.003,209.817 201.766,211.192 207.216 C 220.858 245.531,267.090 256.210,292.567 226.013 C 303.944 212.529,306.189 190.215,297.679 175.200 C 296.869 173.770,295.969 172.130,295.680 171.555 C 294.153 168.524,286.566 161.009,281.698 157.705 C 280.150 156.655,275.087 154.000,274.631 154.000 C 274.480 154.000,273.550 153.633,272.565 153.184 C 271.580 152.735,269.744 152.179,268.487 151.949 C 267.229 151.719,265.217 151.276,264.016 150.965 C 260.684 150.103,251.693 150.211,247.975 151.158 C 246.339 151.574,244.300 152.037,243.445 152.186 C 239.683 152.841,229.631 158.503,225.400 162.350 C 218.540 168.587,213.425 177.393,211.170 186.850 C 209.902 192.168,210.719 191.800,200.171 191.800 C 190.180 191.800,190.639 191.928,190.195 189.008 C 189.467 184.221,186.724 177.121,183.641 172.046 C 174.245 156.578,151.850 146.826,135.800 151.214 M157.069 163.773 C 158.571 164.352,160.070 165.004,160.400 165.221 C 160.730 165.438,161.578 165.882,162.284 166.207 C 166.608 168.196,174.265 175.635,175.466 179.014 C 175.722 179.734,176.223 180.769,176.580 181.313 C 176.936 181.857,177.387 182.819,177.583 183.451 C 177.778 184.083,178.297 185.590,178.736 186.800 C 184.224 201.915,176.300 222.063,162.400 228.336 C 161.630 228.684,160.730 229.171,160.400 229.418 C 155.722 232.921,138.424 233.837,133.438 230.846 C 132.757 230.437,131.719 229.990,131.131 229.851 C 130.543 229.713,129.527 229.150,128.873 228.600 C 128.219 228.050,127.573 227.600,127.438 227.600 C 127.302 227.600,126.097 226.835,124.760 225.900 C 123.423 224.965,122.030 224.020,121.664 223.800 C 121.299 223.580,120.888 223.246,120.750 223.057 C 120.613 222.869,119.752 221.852,118.837 220.798 C 116.750 218.391,115.461 216.617,114.408 214.700 C 113.955 213.875,113.427 213.200,113.236 213.200 C 113.045 213.200,112.764 212.525,112.610 211.700 C 112.457 210.875,112.008 209.570,111.612 208.800 C 109.178 204.064,109.159 189.844,111.579 184.600 C 111.985 183.720,112.444 182.576,112.599 182.059 C 112.753 181.541,113.312 180.481,113.840 179.703 C 114.368 178.925,114.800 178.109,114.800 177.890 C 114.800 177.671,115.205 177.082,115.700 176.581 C 116.195 176.080,116.960 175.179,117.400 174.578 C 118.530 173.037,123.196 168.400,123.618 168.400 C 123.811 168.400,124.291 168.065,124.684 167.656 C 125.078 167.247,125.900 166.793,126.510 166.646 C 127.121 166.500,127.976 166.024,128.410 165.590 C 128.845 165.155,129.425 164.796,129.700 164.791 C 129.975 164.785,131.280 164.328,132.600 163.774 C 134.073 163.156,136.778 162.535,139.600 162.166 C 142.130 161.835,144.351 161.522,144.536 161.470 C 145.551 161.185,154.731 162.872,157.069 163.773 M261.924 162.190 C 264.385 162.515,266.803 163.040,267.299 163.357 C 267.794 163.675,268.986 164.142,269.947 164.395 C 270.908 164.649,272.057 165.194,272.501 165.608 C 272.945 166.022,273.824 166.473,274.454 166.612 C 275.084 166.750,275.600 167.021,275.600 167.213 C 275.600 167.405,276.220 167.857,276.979 168.217 C 279.517 169.421,286.752 177.736,287.685 180.521 C 287.920 181.224,288.327 182.070,288.588 182.400 C 289.145 183.103,290.745 188.207,291.221 190.800 C 292.283 196.574,290.699 208.914,288.545 211.655 C 288.309 211.955,287.915 212.798,287.668 213.530 C 287.422 214.261,286.811 215.369,286.310 215.991 C 285.810 216.613,284.950 217.713,284.400 218.436 C 281.129 222.737,278.713 224.913,274.689 227.185 C 273.466 227.875,272.248 228.701,271.984 229.020 C 271.719 229.339,271.281 229.600,271.011 229.600 C 270.740 229.600,269.689 230.041,268.675 230.581 C 262.206 234.020,246.973 233.186,240.000 229.010 C 239.230 228.549,238.150 227.974,237.600 227.731 C 231.995 225.264,224.527 215.483,221.770 207.000 C 219.934 201.351,220.941 188.767,223.646 183.546 C 224.061 182.746,224.400 181.861,224.400 181.581 C 224.400 179.577,232.617 169.743,235.565 168.218 C 236.244 167.867,236.800 167.404,236.800 167.190 C 236.800 166.975,237.115 166.787,237.500 166.771 C 237.885 166.755,238.740 166.397,239.400 165.975 C 240.060 165.554,240.870 165.092,241.200 164.950 C 248.326 161.877,253.910 161.133,261.924 162.190 M136.170 169.587 C 130.109 170.281,121.760 175.969,119.713 180.800 C 119.387 181.570,118.868 182.485,118.559 182.832 C 116.139 185.561,115.376 194.946,117.196 199.600 C 118.366 202.591,120.038 206.071,120.655 206.800 C 121.232 207.481,124.196 210.465,125.400 211.576 C 126.672 212.750,130.580 214.800,131.546 214.800 C 132.031 214.800,132.909 215.115,133.497 215.500 C 134.378 216.077,135.490 216.200,139.801 216.200 C 144.113 216.200,145.224 216.077,146.104 215.500 C 146.691 215.115,147.454 214.800,147.799 214.800 C 151.130 214.800,159.691 207.189,160.637 203.386 C 160.799 202.734,161.257 201.750,161.654 201.200 C 163.446 198.719,163.439 186.863,161.644 184.392 C 161.242 183.838,160.779 182.938,160.616 182.392 C 158.943 176.787,150.198 170.395,143.073 169.568 C 139.860 169.196,139.588 169.196,136.170 169.587 M256.200 169.609 C 253.527 169.942,249.499 171.378,247.809 172.600 C 241.512 177.155,238.964 180.620,236.922 187.400 C 235.596 191.805,236.504 200.195,238.588 202.800 C 238.852 203.130,239.318 204.030,239.623 204.800 C 240.188 206.226,246.447 212.800,247.239 212.800 C 247.478 212.800,248.125 213.155,248.677 213.589 C 249.230 214.024,250.338 214.501,251.141 214.650 C 251.943 214.799,253.042 215.209,253.582 215.560 C 255.040 216.509,264.499 216.482,266.200 215.524 C 266.860 215.152,268.030 214.747,268.801 214.625 C 271.103 214.257,276.902 209.700,279.012 206.600 C 283.494 200.017,284.795 188.536,281.576 183.976 C 281.178 183.412,280.726 182.443,280.570 181.821 C 280.294 180.722,277.155 176.500,276.170 175.902 C 275.899 175.738,274.708 174.814,273.523 173.848 C 269.076 170.226,263.061 168.754,256.200 169.609 M136.084 178.052 C 141.286 180.782,138.829 189.600,132.867 189.600 C 127.306 189.600,124.647 182.359,128.821 178.581 C 130.246 177.292,134.100 177.011,136.084 178.052 M255.975 178.336 C 261.827 182.617,257.238 191.457,250.344 189.182 C 245.449 187.566,245.122 178.824,249.917 177.768 C 250.513 177.637,251.180 177.462,251.400 177.379 C 252.233 177.064,255.039 177.651,255.975 178.336 M183.400 245.186 C 173.730 247.562,172.786 259.693,182.043 262.605 C 190.873 265.382,197.453 253.693,190.537 247.515 C 188.796 245.960,185.125 244.762,183.400 245.186 M214.600 245.360 C 204.374 248.594,205.942 263.228,216.511 263.196 C 226.266 263.167,228.500 249.487,219.348 245.823 C 216.445 244.661,216.722 244.688,214.600 245.360 " stroke="none" fill="#764037" fill-rule="evenodd"></path><path id="path1" d="M0.000 200.000 L 0.000 400.000 200.000 400.000 L 400.000 400.000 400.000 200.000 L 400.000 0.000 200.000 0.000 L 0.000 0.000 0.000 200.000 M202.400 57.408 C 202.400 57.894,202.037 58.753,201.594 59.317 C 200.906 60.191,200.753 61.155,200.552 65.871 C 200.209 73.912,200.122 73.843,205.200 69.576 C 207.730 67.449,210.703 65.389,212.676 64.392 C 214.478 63.483,216.149 62.502,216.389 62.213 C 216.629 61.924,217.626 61.567,218.604 61.420 C 219.581 61.274,220.492 60.975,220.626 60.757 C 220.782 60.506,221.086 60.539,221.457 60.848 C 222.727 61.901,222.797 62.660,221.938 66.055 C 220.906 70.138,221.057 75.966,222.245 77.862 C 222.637 78.488,222.984 79.046,223.016 79.103 C 223.047 79.160,224.568 79.394,226.395 79.623 C 228.221 79.852,230.221 80.301,230.838 80.620 C 231.455 80.939,232.339 81.200,232.802 81.200 C 234.482 81.200,246.849 85.604,248.000 86.612 C 248.330 86.901,249.140 87.266,249.800 87.422 C 251.139 87.739,254.864 89.332,256.400 90.244 C 256.950 90.571,258.120 91.200,259.000 91.643 C 261.602 92.953,262.985 93.773,264.181 94.713 C 264.801 95.201,265.509 95.603,265.754 95.607 C 266.647 95.622,278.351 103.764,280.693 106.000 C 281.038 106.330,281.724 106.870,282.217 107.200 C 286.301 109.936,304.800 128.686,304.800 130.090 C 304.800 130.324,305.167 130.895,305.616 131.358 C 307.853 133.668,312.800 140.504,312.800 141.286 C 312.800 141.478,313.250 142.120,313.800 142.713 C 314.350 143.307,314.800 143.991,314.800 144.234 C 314.800 144.477,315.155 144.998,315.590 145.391 C 316.024 145.784,316.496 146.473,316.639 146.922 C 316.781 147.371,317.221 148.085,317.615 148.509 C 318.010 148.932,318.440 149.707,318.572 150.229 C 318.703 150.752,319.258 151.839,319.805 152.645 C 320.352 153.452,320.800 154.419,320.800 154.794 C 320.800 155.169,321.144 155.787,321.564 156.167 C 321.984 156.548,322.446 157.329,322.590 157.903 C 322.734 158.477,323.273 159.447,323.788 160.058 C 324.302 160.670,324.801 161.402,324.895 161.685 C 325.022 162.067,326.915 162.261,332.233 162.437 C 344.998 162.860,352.378 165.644,361.731 173.564 C 379.458 188.574,382.226 215.277,368.025 234.281 C 361.093 243.558,348.590 250.898,338.090 251.852 C 334.707 252.160,333.072 253.379,332.612 255.938 C 332.467 256.742,332.018 258.120,331.614 259.000 C 331.210 259.880,330.672 261.261,330.419 262.068 C 330.166 262.875,329.712 263.741,329.411 263.991 C 329.109 264.241,328.744 265.150,328.598 266.011 C 328.453 266.872,328.012 267.987,327.619 268.488 C 327.226 268.990,326.779 269.973,326.626 270.672 C 326.474 271.372,326.088 272.161,325.770 272.425 C 325.451 272.689,324.832 273.647,324.394 274.553 C 323.956 275.459,323.193 276.844,322.699 277.632 C 322.204 278.419,321.440 279.662,321.000 280.394 C 320.560 281.126,319.930 282.027,319.600 282.396 C 319.270 282.765,318.730 283.518,318.400 284.069 C 316.713 286.885,315.839 288.058,315.154 288.424 C 314.739 288.646,314.400 289.026,314.400 289.268 C 314.400 289.510,313.995 290.118,313.500 290.620 C 313.005 291.121,311.790 292.472,310.800 293.622 C 309.810 294.772,308.762 295.912,308.471 296.156 C 307.649 296.846,306.693 297.813,305.575 299.085 C 305.012 299.727,303.302 301.290,301.775 302.558 C 300.249 303.827,298.043 305.694,296.874 306.708 C 295.705 307.722,294.413 308.743,294.003 308.976 C 293.593 309.209,292.167 310.165,290.834 311.100 C 289.500 312.035,288.221 312.800,287.992 312.800 C 287.763 312.800,287.473 313.065,287.349 313.388 C 287.225 313.711,286.511 314.197,285.762 314.468 C 285.013 314.739,284.400 315.106,284.400 315.284 C 284.400 315.589,282.801 316.497,278.917 318.399 C 277.991 318.852,277.136 319.380,277.018 319.571 C 276.899 319.763,275.914 320.133,274.829 320.393 C 273.226 320.778,272.192 321.474,269.327 324.099 C 261.231 331.519,249.585 337.157,237.200 339.653 C 220.367 343.045,189.751 344.012,175.200 341.612 C 167.487 340.339,163.123 339.508,161.200 338.944 C 159.990 338.590,158.100 338.064,157.000 337.775 C 148.810 335.626,138.790 330.233,132.200 324.427 C 127.936 320.670,127.580 320.400,126.900 320.400 C 126.014 320.400,118.778 316.744,117.400 315.600 C 117.065 315.322,116.271 314.803,115.636 314.447 C 115.001 314.091,113.713 313.260,112.775 312.600 C 111.837 311.940,110.489 311.040,109.781 310.600 C 106.757 308.722,105.200 307.564,105.200 307.195 C 105.200 306.978,104.926 306.800,104.591 306.800 C 104.257 306.800,103.784 306.364,103.541 305.831 C 103.298 305.298,102.717 304.760,102.250 304.635 C 101.782 304.511,100.465 303.552,99.322 302.505 C 98.179 301.457,96.919 300.316,96.522 299.970 C 94.273 298.008,87.533 290.473,87.340 289.705 C 87.216 289.207,86.869 288.800,86.571 288.800 C 86.272 288.800,85.838 288.444,85.605 288.009 C 85.372 287.574,84.286 286.034,83.191 284.588 C 82.096 283.141,81.200 281.716,81.200 281.422 C 81.200 281.127,80.936 280.784,80.613 280.660 C 80.290 280.536,79.753 279.842,79.420 279.117 C 79.087 278.393,78.316 276.955,77.707 275.922 C 74.446 270.391,73.633 268.870,73.364 267.800 C 73.202 267.153,72.756 266.078,72.373 265.412 C 71.991 264.745,71.547 263.570,71.387 262.800 C 71.227 262.030,70.759 260.971,70.348 260.446 C 69.937 259.921,69.600 259.126,69.600 258.678 C 69.600 257.541,67.178 252.401,66.641 252.398 C 48.759 252.302,30.667 237.994,25.242 219.657 C 16.530 190.212,41.500 159.396,71.719 162.298 C 74.443 162.560,75.335 162.519,75.668 162.118 C 75.904 161.833,76.301 161.598,76.549 161.596 C 76.797 161.594,77.316 160.919,77.702 160.096 C 78.088 159.273,78.652 158.150,78.956 157.600 C 79.259 157.050,80.005 155.539,80.614 154.241 C 81.222 152.944,82.411 150.784,83.256 149.441 C 84.100 148.099,85.140 146.358,85.567 145.573 C 85.993 144.789,86.625 143.911,86.971 143.624 C 87.317 143.337,87.603 142.899,87.606 142.651 C 87.609 142.403,88.247 141.300,89.024 140.200 C 89.800 139.100,90.742 137.743,91.118 137.184 C 92.026 135.832,96.515 129.854,96.812 129.600 C 96.941 129.490,98.101 128.140,99.390 126.600 C 100.679 125.060,102.108 123.422,102.567 122.959 C 103.025 122.497,105.732 119.752,108.583 116.859 C 111.433 113.967,113.875 111.600,114.009 111.600 C 114.143 111.600,115.168 110.745,116.288 109.700 C 119.820 106.401,123.834 103.200,124.437 103.200 C 124.617 103.200,125.267 102.737,125.882 102.172 C 127.719 100.483,128.124 100.164,129.885 99.014 C 131.620 97.881,133.164 96.993,135.600 95.727 C 136.370 95.327,137.180 94.801,137.400 94.557 C 138.329 93.528,148.783 88.143,151.000 87.552 C 151.880 87.318,152.870 86.895,153.200 86.613 C 153.530 86.332,154.520 85.878,155.400 85.606 C 156.280 85.334,157.360 84.888,157.800 84.616 C 158.684 84.070,165.395 81.866,167.600 81.398 C 169.475 81.000,171.163 79.753,171.873 78.241 C 173.003 75.834,173.711 74.591,174.405 73.800 C 174.791 73.360,175.384 72.460,175.723 71.800 C 177.194 68.939,185.206 61.202,186.700 61.200 C 186.975 61.200,187.200 61.010,187.200 60.778 C 187.200 60.545,188.003 60.000,188.983 59.566 C 189.964 59.132,190.872 58.607,191.000 58.400 C 191.129 58.192,191.991 57.802,192.917 57.534 C 193.843 57.265,195.011 56.786,195.512 56.469 C 198.135 54.811,202.400 55.392,202.400 57.408 M130.047 179.052 C 127.445 180.874,127.396 186.581,129.974 187.550 C 134.515 189.255,137.628 187.461,137.662 183.120 C 137.691 179.315,133.141 176.885,130.047 179.052 M250.000 178.811 C 248.763 179.294,247.144 182.699,247.501 184.067 C 249.190 190.526,258.541 189.031,257.408 182.483 C 256.850 179.259,253.326 177.512,250.000 178.811 " stroke="none" fill="#fbefdb" fill-rule="evenodd"></path><path id="path2" d="M198.712 55.624 C 197.454 55.771,196.014 56.151,195.512 56.469 C 195.011 56.786,193.843 57.265,192.917 57.534 C 191.991 57.802,191.129 58.192,191.000 58.400 C 190.872 58.607,189.964 59.132,188.983 59.566 C 188.003 60.000,187.200 60.545,187.200 60.778 C 187.200 61.010,186.975 61.200,186.700 61.200 C 185.206 61.202,177.194 68.939,175.723 71.800 C 175.384 72.460,174.791 73.360,174.405 73.800 C 173.711 74.591,173.003 75.834,171.873 78.241 C 171.163 79.753,169.475 81.000,167.600 81.398 C 165.395 81.866,158.684 84.070,157.800 84.616 C 157.360 84.888,156.280 85.334,155.400 85.606 C 154.520 85.878,153.530 86.332,153.200 86.613 C 152.870 86.895,151.880 87.318,151.000 87.552 C 148.783 88.143,138.329 93.528,137.400 94.557 C 137.180 94.801,136.370 95.327,135.600 95.727 C 133.164 96.993,131.620 97.881,129.885 99.014 C 128.124 100.164,127.719 100.483,125.882 102.172 C 125.267 102.737,124.617 103.200,124.437 103.200 C 123.834 103.200,119.820 106.401,116.288 109.700 C 115.168 110.745,114.143 111.600,114.009 111.600 C 113.875 111.600,111.433 113.967,108.583 116.859 C 105.732 119.752,103.025 122.497,102.567 122.959 C 102.108 123.422,100.679 125.060,99.390 126.600 C 98.101 128.140,96.941 129.490,96.812 129.600 C 96.515 129.854,92.026 135.832,91.118 137.184 C 90.742 137.743,89.800 139.100,89.024 140.200 C 88.247 141.300,87.609 142.403,87.606 142.651 C 87.603 142.899,87.317 143.337,86.971 143.624 C 86.625 143.911,85.993 144.789,85.567 145.573 C 85.140 146.358,84.100 148.099,83.256 149.441 C 82.411 150.784,81.222 152.944,80.614 154.241 C 80.005 155.539,79.259 157.050,78.956 157.600 C 78.652 158.150,78.088 159.273,77.702 160.096 C 77.316 160.919,76.797 161.594,76.549 161.596 C 76.301 161.598,75.904 161.833,75.668 162.118 C 75.335 162.519,74.443 162.560,71.719 162.298 C 48.976 160.114,26.576 178.356,23.948 201.200 C 21.668 221.024,30.853 238.313,48.600 247.598 C 53.170 249.989,62.132 252.374,66.641 252.398 C 67.178 252.401,69.600 257.541,69.600 258.678 C 69.600 259.126,69.937 259.921,70.348 260.446 C 70.759 260.971,71.227 262.030,71.387 262.800 C 71.547 263.570,71.991 264.745,72.373 265.412 C 72.756 266.078,73.202 267.153,73.364 267.800 C 73.633 268.870,74.446 270.391,77.707 275.922 C 78.316 276.955,79.087 278.393,79.420 279.117 C 79.753 279.842,80.290 280.536,80.613 280.660 C 80.936 280.784,81.200 281.127,81.200 281.422 C 81.200 281.716,82.096 283.141,83.191 284.588 C 84.286 286.034,85.372 287.574,85.605 288.009 C 85.838 288.444,86.272 288.800,86.571 288.800 C 86.869 288.800,87.216 289.207,87.340 289.705 C 87.533 290.473,94.273 298.008,96.522 299.970 C 96.919 300.316,98.179 301.457,99.322 302.505 C 100.465 303.552,101.782 304.511,102.250 304.635 C 102.717 304.760,103.298 305.298,103.541 305.831 C 103.784 306.364,104.257 306.800,104.591 306.800 C 104.926 306.800,105.200 306.978,105.200 307.195 C 105.200 307.564,106.757 308.722,109.781 310.600 C 110.489 311.040,111.837 311.940,112.775 312.600 C 113.713 313.260,115.001 314.091,115.636 314.447 C 116.271 314.803,117.065 315.322,117.400 315.600 C 118.778 316.744,126.014 320.400,126.900 320.400 C 127.580 320.400,127.936 320.670,132.200 324.427 C 138.790 330.233,148.810 335.626,157.000 337.775 C 158.100 338.064,159.990 338.590,161.200 338.944 C 163.123 339.508,167.487 340.339,175.200 341.612 C 189.751 344.012,220.367 343.045,237.200 339.653 C 249.585 337.157,261.231 331.519,269.327 324.099 C 272.192 321.474,273.226 320.778,274.829 320.393 C 275.914 320.133,276.899 319.763,277.018 319.571 C 277.136 319.380,277.991 318.852,278.917 318.399 C 282.801 316.497,284.400 315.589,284.400 315.284 C 284.400 315.106,285.013 314.739,285.762 314.468 C 286.511 314.197,287.225 313.711,287.349 313.388 C 287.473 313.065,287.763 312.800,287.992 312.800 C 288.221 312.800,289.500 312.035,290.834 311.100 C 292.167 310.165,293.593 309.209,294.003 308.976 C 294.413 308.743,295.705 307.722,296.874 306.708 C 298.043 305.694,300.249 303.827,301.775 302.558 C 303.302 301.290,305.012 299.727,305.575 299.085 C 306.693 297.813,307.649 296.846,308.471 296.156 C 308.762 295.912,309.810 294.772,310.800 293.622 C 311.790 292.472,313.005 291.121,313.500 290.620 C 313.995 290.118,314.400 289.510,314.400 289.268 C 314.400 289.026,314.739 288.646,315.154 288.424 C 315.839 288.058,316.713 286.885,318.400 284.069 C 318.730 283.518,319.270 282.765,319.600 282.396 C 319.930 282.027,320.560 281.126,321.000 280.394 C 321.440 279.662,322.204 278.419,322.699 277.632 C 323.193 276.844,323.956 275.459,324.394 274.553 C 324.832 273.647,325.451 272.689,325.770 272.425 C 326.088 272.161,326.474 271.372,326.626 270.672 C 326.779 269.973,327.226 268.990,327.619 268.488 C 328.012 267.987,328.453 266.872,328.598 266.011 C 328.744 265.150,329.109 264.241,329.411 263.991 C 329.712 263.741,330.166 262.875,330.419 262.068 C 330.672 261.261,331.210 259.880,331.614 259.000 C 332.018 258.120,332.467 256.742,332.612 255.938 C 333.072 253.379,334.707 252.160,338.090 251.852 C 348.590 250.898,361.093 243.558,368.025 234.281 C 382.226 215.277,379.458 188.574,361.731 173.564 C 352.378 165.644,344.998 162.860,332.233 162.437 C 326.915 162.261,325.022 162.067,324.895 161.685 C 324.801 161.402,324.302 160.670,323.788 160.058 C 323.273 159.447,322.734 158.477,322.590 157.903 C 322.446 157.329,321.984 156.548,321.564 156.167 C 321.144 155.787,320.800 155.169,320.800 154.794 C 320.800 154.419,320.352 153.452,319.805 152.645 C 319.258 151.839,318.703 150.752,318.572 150.229 C 318.440 149.707,318.010 148.932,317.615 148.509 C 317.221 148.085,316.781 147.371,316.639 146.922 C 316.496 146.473,316.024 145.784,315.590 145.391 C 315.155 144.998,314.800 144.477,314.800 144.234 C 314.800 143.991,314.350 143.307,313.800 142.713 C 313.250 142.120,312.800 141.478,312.800 141.286 C 312.800 140.504,307.853 133.668,305.616 131.358 C 305.167 130.895,304.800 130.324,304.800 130.090 C 304.800 128.686,286.301 109.936,282.217 107.200 C 281.724 106.870,281.038 106.330,280.693 106.000 C 278.351 103.764,266.647 95.622,265.754 95.607 C 265.509 95.603,264.801 95.201,264.181 94.713 C 262.985 93.773,261.602 92.953,259.000 91.643 C 258.120 91.200,256.950 90.571,256.400 90.244 C 254.864 89.332,251.139 87.739,249.800 87.422 C 249.140 87.266,248.330 86.901,248.000 86.612 C 246.849 85.604,234.482 81.200,232.802 81.200 C 232.339 81.200,231.455 80.939,230.838 80.620 C 230.221 80.301,228.221 79.852,226.395 79.623 C 224.568 79.394,223.047 79.160,223.016 79.103 C 222.984 79.046,222.637 78.488,222.245 77.862 C 221.057 75.966,220.906 70.138,221.938 66.055 C 222.797 62.660,222.727 61.901,221.457 60.848 C 221.086 60.539,220.782 60.506,220.626 60.757 C 220.492 60.975,219.581 61.274,218.604 61.420 C 217.626 61.567,216.629 61.924,216.389 62.213 C 216.149 62.502,214.478 63.483,212.676 64.392 C 210.703 65.389,207.730 67.449,205.200 69.576 C 200.122 73.843,200.209 73.912,200.552 65.871 C 200.753 61.155,200.906 60.191,201.594 59.317 C 203.498 56.896,202.188 55.217,198.712 55.624 M201.196 56.595 C 201.593 57.073,201.554 57.528,201.000 58.895 C 200.496 60.140,200.252 62.245,200.098 66.690 C 199.824 74.566,199.953 74.769,203.394 71.849 C 213.690 63.115,223.388 59.080,221.407 64.355 C 220.131 67.753,220.245 76.604,221.589 78.385 C 222.090 79.050,223.139 79.489,225.439 79.999 C 235.397 82.203,243.852 85.070,252.644 89.223 C 253.548 89.651,254.395 90.000,254.526 90.000 C 254.658 90.000,256.754 91.125,259.184 92.500 C 261.614 93.875,264.097 95.271,264.701 95.603 C 274.149 100.785,290.228 114.126,298.639 123.763 C 300.158 125.503,301.920 127.483,302.556 128.163 C 303.192 128.844,304.131 130.030,304.643 130.800 C 305.155 131.570,306.489 133.370,307.607 134.800 C 308.725 136.230,310.289 138.390,311.083 139.600 C 311.876 140.810,313.397 143.088,314.461 144.663 C 315.526 146.238,316.515 147.858,316.659 148.263 C 316.803 148.668,317.145 149.270,317.417 149.600 C 317.690 149.930,319.034 152.360,320.405 155.000 C 323.607 161.171,324.736 163.138,325.875 164.531 C 326.384 165.153,326.801 165.963,326.802 166.331 C 326.803 166.699,327.253 167.886,327.802 168.968 C 328.351 170.050,328.800 171.452,328.800 172.084 C 328.800 172.716,329.173 173.737,329.630 174.355 C 330.086 174.972,330.560 176.222,330.682 177.133 C 330.804 178.043,331.141 178.985,331.430 179.225 C 331.720 179.465,332.167 180.601,332.424 181.750 C 332.974 184.209,334.075 185.065,337.695 185.850 C 357.798 190.208,360.060 218.890,340.989 227.623 C 337.586 229.182,336.965 230.559,336.671 237.200 C 336.521 240.597,336.187 243.034,335.630 244.800 C 335.179 246.230,334.807 247.940,334.804 248.600 C 334.800 249.260,334.409 250.430,333.934 251.200 C 333.459 251.970,332.297 254.823,331.352 257.539 C 330.407 260.256,329.469 262.686,329.269 262.939 C 329.068 263.193,328.673 264.120,328.391 265.000 C 327.886 266.572,326.882 268.825,325.806 270.800 C 323.758 274.562,321.432 278.632,321.234 278.800 C 321.105 278.910,320.654 279.630,320.230 280.400 C 319.807 281.170,319.347 281.890,319.210 282.000 C 319.072 282.110,318.341 283.100,317.587 284.200 C 311.877 292.523,300.170 304.108,291.800 309.718 C 290.260 310.750,288.237 312.130,287.305 312.784 C 285.416 314.110,280.705 316.815,277.329 318.513 C 273.802 320.287,272.506 319.026,274.825 316.078 C 275.251 315.536,275.600 314.848,275.600 314.549 C 275.600 314.251,275.960 313.782,276.400 313.507 C 276.840 313.232,277.200 312.716,277.200 312.360 C 277.200 312.003,277.631 311.076,278.159 310.299 C 278.686 309.522,279.246 308.282,279.402 307.543 C 279.559 306.804,280.012 305.390,280.409 304.400 C 283.767 296.027,283.764 271.375,280.404 262.800 C 280.017 261.810,279.577 260.026,279.427 258.835 C 279.278 257.644,278.820 256.243,278.411 255.723 C 278.001 255.202,277.546 254.063,277.398 253.190 C 277.251 252.318,276.966 251.503,276.765 251.378 C 275.634 250.679,276.953 247.600,278.384 247.600 C 278.747 247.600,279.655 247.150,280.400 246.600 C 281.145 246.050,281.994 245.600,282.285 245.600 C 282.959 245.600,286.856 243.528,288.261 242.423 C 288.849 241.961,289.751 241.477,290.265 241.348 C 290.779 241.219,291.200 240.944,291.200 240.736 C 291.200 240.529,291.785 240.107,292.500 239.799 C 293.215 239.492,295.237 237.881,296.994 236.220 C 298.750 234.559,300.403 233.200,300.667 233.200 C 300.930 233.200,301.257 232.849,301.394 232.420 C 301.530 231.992,301.992 231.530,302.420 231.394 C 302.849 231.257,303.200 230.964,303.200 230.741 C 303.200 230.329,306.748 225.423,308.200 223.828 C 308.640 223.344,309.326 222.330,309.725 221.574 C 312.966 215.427,313.600 214.136,313.600 213.682 C 313.600 213.397,314.050 212.318,314.600 211.285 C 315.150 210.252,315.600 209.042,315.600 208.597 C 315.600 208.152,315.948 207.138,316.374 206.344 C 316.800 205.549,317.354 203.398,317.605 201.563 C 317.856 199.728,318.318 197.613,318.631 196.864 C 319.441 194.926,319.431 183.451,318.618 181.505 C 318.298 180.740,317.841 178.540,317.602 176.618 C 317.363 174.696,316.917 172.735,316.610 172.261 C 316.303 171.788,315.834 170.500,315.568 169.400 C 315.302 168.300,314.930 167.200,314.740 166.956 C 314.551 166.713,314.034 165.462,313.592 164.178 C 313.151 162.894,312.521 161.434,312.195 160.935 C 311.868 160.436,311.600 159.780,311.600 159.476 C 311.600 159.173,311.149 158.401,310.598 157.762 C 310.046 157.123,309.488 156.267,309.358 155.861 C 309.228 155.454,308.859 154.824,308.539 154.461 C 308.219 154.097,307.112 152.721,306.079 151.401 C 305.045 150.082,303.975 148.764,303.700 148.473 C 303.425 148.181,303.200 147.686,303.200 147.371 C 303.200 147.057,302.926 146.800,302.591 146.800 C 302.257 146.800,301.778 146.350,301.527 145.800 C 301.277 145.250,300.835 144.800,300.545 144.800 C 300.255 144.800,299.724 144.350,299.363 143.800 C 299.003 143.250,298.549 142.800,298.354 142.800 C 298.160 142.800,297.236 142.055,296.300 141.145 C 295.365 140.235,293.925 139.063,293.100 138.540 C 292.275 138.018,291.600 137.435,291.600 137.245 C 291.600 137.055,291.105 136.800,290.500 136.677 C 289.895 136.555,289.026 136.105,288.569 135.676 C 288.112 135.248,287.302 134.762,286.769 134.596 C 286.236 134.431,285.350 133.981,284.800 133.597 C 284.250 133.213,283.223 132.775,282.519 132.622 C 281.814 132.470,280.815 132.012,280.298 131.605 C 279.780 131.199,278.667 130.736,277.824 130.578 C 276.980 130.420,275.984 129.984,275.609 129.609 C 275.168 129.168,273.948 128.833,272.163 128.662 C 270.643 128.516,268.410 128.083,267.200 127.699 C 264.009 126.685,243.811 126.679,240.200 127.691 C 238.880 128.060,236.097 128.490,234.015 128.645 C 231.565 128.828,229.801 129.177,229.015 129.633 C 228.347 130.021,226.900 130.467,225.800 130.625 C 224.700 130.783,223.387 131.235,222.881 131.629 C 222.376 132.022,221.386 132.464,220.681 132.610 C 219.328 132.890,215.945 134.476,213.600 135.929 C 212.830 136.407,211.981 136.798,211.714 136.799 C 211.133 136.800,210.614 137.259,205.281 142.479 C 201.435 146.244,201.097 146.481,200.181 146.064 C 199.641 145.818,199.200 145.433,199.200 145.209 C 199.200 144.984,198.993 144.800,198.740 144.800 C 198.487 144.800,197.340 143.855,196.191 142.700 C 191.982 138.468,190.170 136.934,188.826 136.467 C 188.070 136.205,187.170 135.745,186.826 135.446 C 186.482 135.146,185.539 134.689,184.732 134.430 C 183.925 134.171,183.048 133.698,182.783 133.380 C 182.518 133.061,181.958 132.800,181.538 132.800 C 180.674 132.800,177.939 131.729,177.614 131.262 C 177.496 131.094,176.251 130.747,174.848 130.492 C 173.444 130.238,172.004 129.775,171.648 129.465 C 171.244 129.113,169.530 128.797,167.092 128.625 C 164.942 128.474,162.242 128.069,161.092 127.725 C 157.473 126.644,138.078 126.497,134.748 127.525 C 133.339 127.960,130.930 128.450,129.393 128.613 C 127.686 128.794,126.239 129.191,125.672 129.634 C 125.161 130.033,123.957 130.477,122.996 130.622 C 122.035 130.766,120.949 131.215,120.583 131.619 C 120.217 132.024,119.376 132.473,118.716 132.619 C 118.055 132.764,116.878 133.314,116.101 133.841 C 115.324 134.369,114.283 134.800,113.787 134.800 C 113.291 134.800,112.791 135.047,112.675 135.349 C 112.559 135.651,111.656 136.289,110.668 136.767 C 109.680 137.245,108.771 137.898,108.648 138.218 C 108.526 138.538,108.059 138.800,107.613 138.800 C 107.166 138.800,106.800 139.064,106.800 139.386 C 106.800 139.708,106.420 140.175,105.956 140.424 C 104.075 141.430,96.583 148.792,96.195 150.015 C 96.058 150.447,95.688 150.800,95.373 150.800 C 95.058 150.800,94.800 151.072,94.800 151.404 C 94.800 151.736,94.430 152.321,93.979 152.704 C 93.527 153.087,92.817 154.165,92.401 155.100 C 91.985 156.035,91.455 156.800,91.222 156.800 C 90.990 156.800,90.800 157.056,90.800 157.369 C 90.800 157.682,90.368 158.452,89.839 159.080 C 89.311 159.708,88.685 160.942,88.448 161.823 C 88.210 162.704,87.748 163.779,87.421 164.212 C 87.093 164.646,86.820 165.337,86.813 165.750 C 86.806 166.162,86.365 167.512,85.834 168.750 C 85.303 169.987,84.658 172.154,84.401 173.564 C 84.145 174.974,83.634 176.586,83.267 177.146 C 82.257 178.689,82.271 199.301,83.284 200.800 C 83.656 201.350,84.175 203.150,84.438 204.800 C 84.701 206.450,85.143 208.070,85.419 208.400 C 85.695 208.730,86.144 209.810,86.417 210.800 C 86.690 211.790,87.337 213.490,87.856 214.579 C 88.375 215.667,88.800 216.854,88.800 217.217 C 88.800 217.579,89.155 218.198,89.590 218.591 C 90.024 218.984,90.492 219.660,90.629 220.092 C 90.767 220.525,91.143 221.176,91.466 221.539 C 92.286 222.464,93.886 224.812,94.491 225.983 C 95.492 227.918,106.646 239.200,107.557 239.200 C 107.902 239.200,112.008 241.783,112.800 242.498 C 113.130 242.796,114.165 243.373,115.100 243.781 C 116.035 244.188,116.800 244.654,116.800 244.816 C 116.800 244.978,117.440 245.231,118.222 245.378 C 119.005 245.525,119.955 245.950,120.334 246.322 C 120.712 246.695,121.827 247.270,122.811 247.600 C 124.416 248.138,124.613 248.341,124.731 249.575 C 124.891 251.260,124.056 254.403,123.379 254.663 C 123.106 254.768,122.769 255.613,122.630 256.540 C 122.491 257.467,122.052 258.761,121.654 259.415 C 121.256 260.070,120.808 261.799,120.659 263.259 C 120.509 264.719,120.003 266.968,119.533 268.257 C 118.194 271.934,118.148 296.760,119.475 299.816 C 119.956 300.925,120.474 302.815,120.626 304.016 C 120.777 305.217,121.225 306.560,121.621 307.000 C 122.017 307.440,122.468 308.340,122.623 309.000 C 122.778 309.660,123.221 310.560,123.607 311.000 C 123.992 311.440,124.443 312.250,124.609 312.800 C 124.774 313.350,125.335 314.309,125.855 314.931 C 126.375 315.553,126.800 316.330,126.800 316.659 C 126.800 316.988,127.078 317.535,127.418 317.875 C 129.600 320.058,125.945 319.684,121.662 317.287 C 119.807 316.249,117.616 315.021,116.793 314.559 C 115.969 314.096,114.509 313.160,113.548 312.478 C 112.587 311.797,110.810 310.563,109.600 309.737 C 103.158 305.339,91.274 294.381,87.883 289.711 C 87.397 289.043,85.916 287.080,84.591 285.348 C 83.265 283.617,81.672 281.390,81.049 280.400 C 78.073 275.668,74.710 269.584,73.972 267.600 C 73.523 266.390,72.834 264.680,72.442 263.800 C 71.227 261.075,70.144 258.293,69.413 256.023 C 69.028 254.826,68.115 252.576,67.385 251.023 C 66.045 248.174,65.200 244.681,65.200 241.991 C 65.200 241.186,64.840 239.120,64.400 237.400 C 63.960 235.680,63.600 233.413,63.600 232.362 C 63.600 229.974,63.023 228.400,62.148 228.400 C 61.026 228.400,57.188 226.409,55.034 224.709 C 40.366 213.131,45.635 189.727,63.809 185.734 C 67.591 184.903,69.011 183.655,69.425 180.800 C 69.568 179.810,70.026 178.406,70.441 177.680 C 70.857 176.953,71.309 175.603,71.445 174.680 C 71.581 173.756,72.032 172.405,72.447 171.677 C 72.861 170.950,73.200 170.020,73.200 169.610 C 73.200 168.717,75.775 163.731,76.825 162.589 C 77.236 162.143,78.748 159.443,80.186 156.589 C 81.624 153.735,83.022 151.040,83.292 150.600 C 83.563 150.160,84.313 148.900,84.960 147.800 C 94.290 131.928,111.145 113.110,124.000 104.213 C 125.210 103.376,126.920 102.127,127.800 101.437 C 129.704 99.945,131.683 98.644,135.200 96.572 C 136.630 95.730,138.070 94.828,138.400 94.568 C 139.461 93.734,149.814 88.523,151.434 88.008 C 152.295 87.735,153.360 87.300,153.800 87.043 C 155.187 86.232,162.030 83.712,166.526 82.355 C 171.176 80.952,171.422 80.761,173.188 77.200 C 177.000 69.515,183.762 62.860,191.600 59.079 C 197.793 56.092,200.250 55.456,201.196 56.595 M151.273 149.566 C 153.231 149.771,154.583 150.126,155.001 150.544 C 155.362 150.905,156.229 151.204,156.929 151.210 C 158.757 151.224,161.687 151.958,162.394 152.579 C 162.727 152.871,163.577 153.233,164.281 153.383 C 164.986 153.533,165.976 153.970,166.481 154.355 C 166.987 154.739,167.992 155.292,168.715 155.582 C 169.439 155.872,170.210 156.445,170.429 156.855 C 170.649 157.265,171.082 157.600,171.391 157.600 C 171.701 157.600,172.190 157.934,172.477 158.343 C 172.765 158.751,173.389 159.208,173.865 159.358 C 174.868 159.675,182.800 167.817,182.800 168.529 C 182.800 168.792,183.144 169.222,183.564 169.485 C 183.984 169.747,184.458 170.555,184.616 171.281 C 184.775 172.006,185.331 172.996,185.852 173.481 C 186.374 173.965,186.800 174.674,186.800 175.055 C 186.800 175.436,187.175 176.147,187.633 176.635 C 188.091 177.122,188.565 178.259,188.685 179.161 C 188.806 180.062,189.033 180.800,189.188 180.800 C 189.752 180.800,190.442 182.974,190.816 185.930 C 191.434 190.797,191.440 190.800,200.051 190.800 C 208.792 190.800,209.061 190.709,209.416 187.646 C 209.559 186.411,210.005 184.680,210.407 183.800 C 210.809 182.920,211.324 181.504,211.550 180.653 C 211.776 179.802,212.218 178.812,212.530 178.453 C 212.843 178.094,213.315 177.128,213.579 176.306 C 213.842 175.484,214.240 174.699,214.462 174.562 C 214.684 174.424,215.211 173.567,215.633 172.656 C 217.146 169.391,218.352 167.836,223.600 162.383 C 224.810 161.125,226.340 159.823,227.001 159.489 C 227.661 159.155,228.544 158.503,228.963 158.041 C 229.382 157.578,229.960 157.200,230.248 157.200 C 230.536 157.200,230.965 156.840,231.200 156.400 C 231.435 155.960,231.850 155.600,232.121 155.600 C 232.392 155.600,233.263 155.159,234.056 154.621 C 234.848 154.082,236.015 153.519,236.649 153.369 C 237.282 153.220,238.353 152.766,239.028 152.361 C 239.703 151.955,241.323 151.505,242.628 151.359 C 243.933 151.213,245.326 150.810,245.723 150.464 C 247.524 148.896,265.696 148.917,267.506 150.489 C 267.888 150.821,269.166 151.201,270.346 151.333 C 271.526 151.465,273.236 151.923,274.146 152.350 C 275.056 152.777,276.250 153.251,276.800 153.403 C 277.350 153.555,278.475 154.112,279.300 154.640 C 280.125 155.168,281.565 156.092,282.500 156.692 C 283.435 157.293,284.560 158.110,285.000 158.508 C 285.440 158.906,286.896 160.107,288.235 161.176 C 289.575 162.246,291.278 163.904,292.021 164.861 C 292.764 165.817,293.738 166.988,294.186 167.462 C 295.937 169.317,296.874 170.780,298.603 174.358 C 298.964 175.105,299.516 175.973,299.829 176.286 C 300.142 176.600,300.515 177.338,300.656 177.928 C 300.798 178.518,301.228 179.630,301.612 180.400 C 301.997 181.170,302.606 183.510,302.966 185.600 C 303.326 187.690,303.792 190.120,304.001 191.000 C 304.501 193.105,304.489 200.968,303.982 203.000 C 303.763 203.880,303.317 206.170,302.992 208.089 C 302.447 211.304,301.704 213.487,300.095 216.600 C 299.754 217.260,299.139 218.475,298.728 219.300 C 298.317 220.125,297.834 220.800,297.655 220.800 C 297.475 220.800,297.094 221.510,296.808 222.377 C 296.521 223.244,295.908 224.313,295.444 224.752 C 294.980 225.191,294.240 226.026,293.800 226.607 C 292.310 228.574,290.156 230.800,289.741 230.800 C 289.514 230.800,289.123 231.250,288.873 231.800 C 288.619 232.357,288.080 232.800,287.655 232.800 C 287.221 232.800,286.800 233.156,286.676 233.630 C 286.557 234.086,286.086 234.557,285.630 234.676 C 285.173 234.796,284.800 235.036,284.800 235.212 C 284.800 235.608,280.164 238.800,279.588 238.800 C 279.357 238.800,278.663 239.173,278.045 239.630 C 277.428 240.086,276.136 240.565,275.173 240.694 C 274.162 240.830,273.164 241.250,272.808 241.690 C 272.438 242.146,271.474 242.537,270.396 242.667 C 269.408 242.786,267.790 243.270,266.800 243.742 C 263.988 245.082,248.563 245.051,246.277 243.700 C 245.440 243.205,244.219 242.800,243.564 242.800 C 242.175 242.800,239.600 241.807,239.600 241.272 C 239.600 241.069,238.725 240.787,237.656 240.645 C 236.527 240.495,235.427 240.072,235.030 239.633 C 234.655 239.219,233.732 238.764,232.979 238.622 C 232.224 238.481,231.422 238.014,231.191 237.583 C 230.960 237.152,230.547 236.800,230.272 236.800 C 229.784 236.800,228.053 235.506,226.125 233.700 C 225.596 233.205,225.062 232.800,224.938 232.800 C 224.648 232.800,219.953 228.006,219.411 227.156 C 217.958 224.879,216.536 222.955,216.104 222.680 C 215.827 222.504,215.600 222.044,215.600 221.658 C 215.600 221.272,215.150 220.345,214.600 219.600 C 214.050 218.855,213.600 217.955,213.600 217.600 C 213.600 217.245,213.168 216.370,212.640 215.654 C 212.112 214.939,211.559 213.708,211.411 212.918 C 211.263 212.129,210.896 211.104,210.596 210.642 C 210.296 210.179,209.840 208.582,209.583 207.093 C 208.910 203.193,208.926 203.200,200.183 203.200 L 192.944 203.200 192.028 204.254 C 191.387 204.991,191.011 206.110,190.777 207.972 C 190.409 210.903,189.814 212.800,189.263 212.800 C 189.066 212.800,188.806 213.538,188.685 214.439 C 188.565 215.341,188.091 216.478,187.633 216.965 C 187.175 217.453,186.800 218.163,186.800 218.544 C 186.800 218.925,186.350 219.686,185.800 220.236 C 185.250 220.786,184.800 221.562,184.800 221.960 C 184.800 222.358,184.395 223.121,183.900 223.657 C 183.405 224.192,182.779 225.118,182.509 225.715 C 182.238 226.312,181.743 226.800,181.409 226.800 C 181.058 226.800,180.800 227.154,180.800 227.637 C 180.800 228.149,180.477 228.559,179.969 228.692 C 179.512 228.812,178.977 229.335,178.779 229.855 C 178.571 230.404,178.092 230.800,177.638 230.800 C 177.131 230.800,176.811 231.117,176.728 231.700 C 176.646 232.278,176.278 232.646,175.700 232.728 C 175.205 232.798,174.800 233.108,174.800 233.418 C 174.800 233.727,174.260 234.259,173.600 234.600 C 172.940 234.941,172.400 235.384,172.400 235.583 C 172.400 235.783,172.056 236.055,171.635 236.189 C 171.214 236.322,170.200 236.965,169.380 237.616 C 168.561 238.267,167.637 238.800,167.329 238.800 C 167.020 238.800,166.263 239.173,165.645 239.630 C 165.028 240.086,163.768 240.561,162.846 240.685 C 161.809 240.824,161.022 241.185,160.784 241.630 C 160.535 242.096,159.725 242.445,158.499 242.614 C 157.455 242.759,155.790 243.265,154.800 243.739 C 152.037 245.061,136.235 245.054,133.800 243.730 C 132.920 243.251,131.392 242.767,130.404 242.655 C 129.316 242.531,128.366 242.152,127.994 241.692 C 127.621 241.231,126.608 240.828,125.413 240.664 C 124.310 240.513,123.072 240.044,122.597 239.597 C 122.130 239.159,121.470 238.800,121.129 238.800 C 120.789 238.800,119.810 238.267,118.955 237.614 C 114.808 234.453,113.600 233.442,113.600 233.134 C 113.600 232.951,113.360 232.800,113.066 232.800 C 112.772 232.800,112.060 232.305,111.483 231.700 C 110.134 230.285,109.603 229.753,108.500 228.708 C 108.005 228.239,107.600 227.627,107.600 227.348 C 107.600 227.068,107.351 226.696,107.046 226.520 C 106.256 226.063,103.741 222.676,103.404 221.613 C 103.248 221.121,102.688 220.081,102.160 219.303 C 101.632 218.525,101.200 217.618,101.200 217.288 C 101.200 216.958,100.925 216.487,100.590 216.242 C 100.254 215.996,99.726 214.897,99.416 213.798 C 99.106 212.699,98.560 211.002,98.203 210.027 C 96.379 205.046,96.573 185.222,98.467 182.923 C 98.684 182.660,99.105 181.517,99.405 180.382 C 99.704 179.248,100.209 178.023,100.527 177.660 C 100.845 177.297,101.237 176.550,101.399 176.000 C 101.560 175.450,102.008 174.640,102.395 174.200 C 102.782 173.760,103.256 172.926,103.449 172.346 C 103.878 171.058,105.034 169.395,106.500 167.957 C 107.105 167.364,107.600 166.688,107.600 166.454 C 107.600 166.220,107.948 165.842,108.373 165.614 C 108.798 165.387,109.257 164.850,109.393 164.421 C 109.530 163.992,109.992 163.530,110.420 163.394 C 110.849 163.257,111.200 162.895,111.200 162.587 C 111.200 162.280,111.605 161.813,112.100 161.551 C 112.595 161.288,113.235 160.742,113.523 160.337 C 113.810 159.931,114.235 159.600,114.468 159.600 C 114.700 159.600,115.455 159.138,116.145 158.572 C 118.569 156.587,120.514 155.200,120.872 155.200 C 121.071 155.200,121.617 154.842,122.087 154.405 C 122.556 153.968,123.573 153.491,124.347 153.346 C 125.121 153.201,126.309 152.755,126.986 152.355 C 127.664 151.955,129.294 151.508,130.609 151.361 C 131.924 151.214,133.318 150.817,133.707 150.478 C 134.947 149.400,144.810 148.887,151.273 149.566 M251.700 178.276 C 252.085 178.376,252.715 178.376,253.100 178.276 C 253.485 178.175,253.170 178.093,252.400 178.093 C 251.630 178.093,251.315 178.175,251.700 178.276 M134.833 178.500 C 134.925 178.555,135.540 179.050,136.200 179.600 L 137.400 180.600 136.430 179.500 C 135.897 178.895,135.282 178.400,135.064 178.400 C 134.845 178.400,134.742 178.445,134.833 178.500 M128.389 180.500 C 127.965 181.435,127.635 182.830,127.656 183.600 C 127.689 184.814,127.738 184.739,128.024 183.029 C 128.205 181.946,128.730 180.551,129.189 179.929 C 129.648 179.308,129.830 178.800,129.592 178.800 C 129.355 178.800,128.814 179.565,128.389 180.500 M255.600 179.107 C 255.600 179.310,255.960 179.802,256.400 180.200 C 256.840 180.598,257.221 181.301,257.246 181.762 C 257.284 182.446,257.327 182.470,257.477 181.894 C 257.579 181.501,257.204 180.645,256.630 179.963 C 256.064 179.290,255.600 178.905,255.600 179.107 M247.624 181.354 C 245.664 185.165,249.692 189.736,253.822 188.388 L 255.000 188.003 253.883 188.149 C 249.364 188.741,246.230 185.170,248.018 181.468 C 249.081 179.268,248.746 179.171,247.624 181.354 M255.832 187.113 L 255.064 188.200 256.132 187.230 C 257.254 186.211,257.393 185.992,256.900 186.013 C 256.735 186.019,256.254 186.514,255.832 187.113 M134.247 188.014 C 133.613 188.204,132.533 188.278,131.847 188.179 L 130.600 187.999 131.753 188.379 C 132.971 188.780,135.069 188.535,135.432 187.948 C 135.550 187.757,135.592 187.615,135.524 187.634 C 135.456 187.653,134.881 187.824,134.247 188.014 M176.632 208.615 C 176.492 209.173,176.557 209.938,176.776 210.315 C 177.088 210.849,177.178 210.625,177.188 209.300 C 177.202 207.371,177.005 207.129,176.632 208.615 M224.800 211.333 C 224.800 212.644,224.963 213.200,225.346 213.200 C 225.767 213.200,225.824 212.827,225.597 211.584 C 225.175 209.275,224.800 209.157,224.800 211.333 M174.275 212.611 C 173.557 214.118,173.488 214.219,171.718 216.339 C 167.776 221.063,160.713 226.800,158.840 226.800 C 158.598 226.800,158.400 226.944,158.400 227.121 C 158.400 227.298,157.455 227.762,156.300 228.153 C 155.145 228.544,153.558 229.132,152.773 229.460 C 151.988 229.788,149.828 230.293,147.973 230.582 L 144.600 231.108 149.253 231.154 C 153.472 231.196,153.925 231.131,154.101 230.458 C 154.252 229.880,154.831 229.655,156.705 229.443 C 158.553 229.233,159.159 229.001,159.304 228.446 C 159.417 228.013,160.023 227.615,160.811 227.458 C 161.536 227.313,162.370 226.850,162.665 226.429 C 162.960 226.008,163.741 225.545,164.400 225.400 C 165.060 225.255,165.600 224.910,165.600 224.632 C 165.600 224.355,166.071 223.914,166.648 223.651 C 167.224 223.389,168.169 222.609,168.748 221.920 C 169.326 221.230,170.173 220.291,170.630 219.833 C 171.086 219.375,171.576 218.685,171.717 218.300 C 171.859 217.915,172.211 217.600,172.500 217.600 C 172.788 217.600,173.228 217.060,173.478 216.400 C 173.727 215.740,174.193 215.200,174.513 215.200 C 175.181 215.200,175.746 212.589,175.264 211.728 C 175.044 211.335,174.765 211.584,174.275 212.611 M226.800 214.511 C 226.800 215.648,226.934 215.923,227.400 215.745 C 228.150 215.457,228.146 214.826,227.387 213.824 C 226.836 213.095,226.800 213.138,226.800 214.511 M228.667 216.292 C 228.376 216.763,228.793 218.400,229.204 218.400 C 229.375 218.400,229.630 218.098,229.772 217.729 C 230.051 217.001,229.041 215.687,228.667 216.292 M230.000 218.776 C 230.000 218.983,230.180 219.264,230.400 219.400 C 230.620 219.536,230.800 219.976,230.800 220.377 C 230.800 220.779,231.173 221.204,231.630 221.324 C 232.086 221.443,232.557 221.914,232.676 222.370 C 232.796 222.827,233.118 223.200,233.392 223.200 C 233.666 223.200,234.569 223.740,235.400 224.400 C 236.231 225.060,237.262 225.600,237.692 225.600 C 238.132 225.600,238.564 225.942,238.679 226.382 C 238.828 226.949,239.366 227.236,240.642 227.427 C 242.005 227.632,242.400 227.860,242.400 228.445 C 242.400 229.029,242.695 229.201,243.700 229.205 C 245.688 229.214,246.749 229.610,247.014 230.443 C 247.232 231.131,247.664 231.195,251.727 231.146 C 254.187 231.116,255.750 231.020,255.200 230.933 C 251.799 230.394,247.778 229.491,247.604 229.226 C 247.492 229.056,246.464 228.694,245.321 228.423 C 244.178 228.152,242.858 227.597,242.388 227.190 C 241.918 226.782,241.024 226.337,240.401 226.200 C 239.777 226.063,239.174 225.708,239.060 225.411 C 238.946 225.114,238.210 224.639,237.426 224.355 C 236.642 224.071,236.000 223.642,236.000 223.402 C 236.000 223.161,235.093 222.273,233.985 221.428 C 232.877 220.582,231.790 219.555,231.571 219.145 C 231.160 218.378,230.000 218.106,230.000 218.776 M188.000 244.190 C 188.550 244.508,189.270 244.892,189.600 245.042 C 190.487 245.447,192.800 247.695,192.800 248.153 C 192.800 248.370,193.205 248.980,193.700 249.507 C 194.992 250.884,195.049 257.425,193.782 258.868 C 193.332 259.381,192.727 260.275,192.438 260.856 C 192.149 261.437,191.437 262.154,190.856 262.450 C 190.275 262.746,189.332 263.320,188.761 263.725 C 187.219 264.817,181.865 264.746,180.333 263.614 C 179.728 263.166,179.036 262.800,178.796 262.800 C 178.260 262.800,175.605 259.960,175.602 259.385 C 175.601 259.156,175.223 258.256,174.762 257.385 C 173.810 255.582,173.709 252.703,174.554 251.414 C 174.852 250.960,175.214 250.045,175.360 249.381 C 175.701 247.830,178.953 244.790,181.238 243.885 C 182.426 243.415,187.018 243.622,188.000 244.190 M220.000 244.190 C 220.550 244.508,221.270 244.892,221.600 245.042 C 222.756 245.569,224.800 247.764,224.800 248.478 C 224.800 248.875,224.989 249.200,225.220 249.200 C 226.941 249.200,227.265 256.828,225.619 258.580 C 225.168 259.059,224.800 259.603,224.800 259.788 C 224.800 260.454,222.746 262.800,222.163 262.800 C 221.836 262.800,221.058 263.177,220.436 263.637 C 217.335 265.930,207.600 262.911,207.600 259.657 C 207.600 259.429,207.150 258.396,206.600 257.362 C 205.346 255.003,205.344 253.535,206.591 251.000 C 207.132 249.900,207.581 248.819,207.587 248.599 C 207.611 247.845,211.563 244.549,213.238 243.885 C 214.426 243.415,219.018 243.622,220.000 244.190 M159.472 281.654 C 160.035 282.174,161.434 283.860,162.583 285.400 C 181.047 310.159,219.802 309.916,238.446 284.924 C 242.602 279.353,247.904 278.939,250.009 284.022 C 252.825 290.821,233.397 309.565,220.800 312.203 C 220.030 312.364,218.936 312.733,218.368 313.023 C 211.833 316.360,192.362 316.330,181.200 312.967 C 164.170 307.835,146.509 290.269,151.273 283.200 C 153.198 280.342,157.233 279.581,159.472 281.654 " stroke="none" fill="#f1aa83" fill-rule="evenodd"></path><path id="path3" d="M197.200 56.990 C 196.650 57.310,195.570 57.777,194.800 58.027 C 186.007 60.884,177.784 68.112,173.377 76.858 C 171.381 80.818,171.237 80.933,166.526 82.355 C 162.030 83.712,155.187 86.232,153.800 87.043 C 153.360 87.300,152.295 87.735,151.434 88.008 C 149.814 88.523,139.461 93.734,138.400 94.568 C 138.070 94.828,136.630 95.730,135.200 96.572 C 131.683 98.644,129.704 99.945,127.800 101.437 C 126.920 102.127,125.210 103.376,124.000 104.213 C 111.145 113.110,94.290 131.928,84.960 147.800 C 84.313 148.900,83.562 150.160,83.290 150.600 C 82.373 152.084,77.932 160.991,77.606 162.000 C 77.429 162.550,77.160 163.360,77.008 163.800 C 76.768 164.498,76.839 164.480,77.567 163.656 C 78.025 163.136,78.400 162.486,78.400 162.210 C 78.400 161.934,78.734 161.279,79.143 160.754 C 79.552 160.229,80.137 159.080,80.443 158.200 C 80.749 157.320,81.405 155.990,81.900 155.244 C 82.395 154.498,82.800 153.666,82.800 153.393 C 82.800 153.121,83.085 152.662,83.433 152.373 C 84.052 151.859,84.754 150.664,86.381 147.353 C 86.826 146.447,87.463 145.480,87.795 145.204 C 88.128 144.928,88.400 144.479,88.400 144.206 C 88.400 143.933,88.895 143.073,89.500 142.295 C 90.884 140.515,92.028 138.945,92.800 137.770 C 93.130 137.268,94.480 135.476,95.800 133.789 C 97.120 132.102,98.383 130.424,98.606 130.061 C 98.829 129.697,99.729 128.654,100.606 127.741 C 101.483 126.829,102.650 125.503,103.200 124.795 C 104.896 122.612,116.977 110.800,117.514 110.800 C 117.671 110.800,118.610 110.013,119.600 109.051 C 121.728 106.985,125.051 104.400,125.581 104.400 C 125.786 104.400,126.193 104.085,126.483 103.700 C 127.046 102.955,127.406 102.704,130.700 100.762 C 131.855 100.081,132.800 99.361,132.800 99.162 C 132.800 98.963,133.045 98.800,133.345 98.800 C 133.645 98.800,134.528 98.305,135.307 97.700 C 137.151 96.268,139.065 95.151,140.773 94.508 C 141.529 94.224,142.429 93.757,142.773 93.471 C 143.118 93.184,144.165 92.619,145.100 92.214 C 146.035 91.810,146.800 91.326,146.800 91.139 C 146.800 90.953,147.135 90.800,147.544 90.800 C 147.953 90.800,148.898 90.386,149.644 89.880 C 150.390 89.374,151.860 88.719,152.910 88.425 C 153.961 88.131,154.909 87.747,155.018 87.571 C 155.126 87.396,156.246 86.957,157.507 86.595 C 158.768 86.233,160.160 85.715,160.600 85.442 C 161.040 85.170,162.480 84.714,163.800 84.429 C 165.120 84.144,166.650 83.666,167.200 83.367 C 167.750 83.068,168.944 82.637,169.853 82.409 C 171.888 81.899,172.684 81.018,174.199 77.600 C 174.540 76.830,174.996 75.930,175.213 75.600 C 175.429 75.270,175.824 74.550,176.090 74.000 C 177.057 72.003,183.853 64.663,185.349 64.000 C 185.597 63.890,186.545 63.315,187.456 62.723 C 189.895 61.136,195.124 58.400,195.717 58.400 C 195.999 58.400,196.936 58.041,197.797 57.602 C 199.940 56.509,200.129 56.894,199.597 61.248 C 198.132 73.237,199.032 77.443,202.344 74.074 C 202.925 73.483,203.697 72.820,204.059 72.600 C 205.319 71.835,207.803 69.796,208.323 69.100 C 208.610 68.715,209.104 68.400,209.419 68.400 C 209.735 68.400,210.218 68.040,210.493 67.600 C 210.768 67.160,211.247 66.800,211.558 66.800 C 211.870 66.800,212.681 66.376,213.362 65.858 C 214.043 65.339,215.050 64.779,215.600 64.612 C 216.150 64.445,217.273 63.937,218.096 63.483 C 220.113 62.370,220.175 62.531,219.646 67.487 C 218.637 76.929,219.739 79.975,224.390 80.604 C 225.595 80.767,226.945 81.127,227.390 81.405 C 227.836 81.682,229.460 82.137,231.000 82.415 C 232.540 82.694,234.160 83.140,234.600 83.407 C 235.040 83.674,236.300 84.118,237.400 84.395 C 238.500 84.671,240.120 85.220,241.000 85.614 C 241.880 86.008,243.230 86.459,244.000 86.616 C 244.770 86.774,245.760 87.154,246.200 87.461 C 246.640 87.768,247.720 88.212,248.600 88.447 C 249.480 88.682,250.479 89.123,250.820 89.427 C 251.161 89.730,252.225 90.256,253.185 90.595 C 254.145 90.934,255.163 91.404,255.447 91.639 C 255.731 91.875,256.557 92.376,257.282 92.753 C 258.007 93.130,258.960 93.655,259.400 93.919 C 259.840 94.183,260.650 94.592,261.200 94.828 C 263.261 95.710,266.747 97.908,270.600 100.755 C 271.480 101.405,273.386 102.674,274.836 103.576 C 276.286 104.477,278.299 106.007,279.309 106.975 C 281.257 108.841,285.186 111.935,286.446 112.595 C 286.861 112.812,287.200 113.120,287.200 113.278 C 287.200 113.630,292.182 118.800,292.521 118.800 C 292.795 118.800,294.911 121.006,296.400 122.842 C 298.146 124.997,298.811 125.748,300.966 128.000 C 302.124 129.210,303.305 130.650,303.591 131.200 C 303.877 131.750,304.364 132.470,304.673 132.800 C 305.840 134.046,311.600 141.761,311.600 142.078 C 311.600 142.260,312.302 143.442,313.160 144.705 C 314.018 145.967,315.108 147.720,315.581 148.600 C 316.054 149.480,317.152 151.343,318.021 152.740 C 318.889 154.137,319.600 155.450,319.600 155.656 C 319.600 155.863,320.351 157.420,321.269 159.116 C 322.187 160.812,323.176 162.650,323.467 163.200 L 323.995 164.200 323.998 163.067 C 324.000 162.041,318.641 151.069,317.420 149.600 C 317.146 149.270,316.803 148.668,316.659 148.263 C 316.515 147.858,315.526 146.238,314.461 144.663 C 313.397 143.088,311.876 140.810,311.083 139.600 C 310.289 138.390,308.725 136.230,307.607 134.800 C 306.489 133.370,305.155 131.570,304.643 130.800 C 304.131 130.030,303.192 128.844,302.556 128.163 C 301.920 127.483,300.158 125.503,298.639 123.763 C 290.228 114.126,274.149 100.785,264.701 95.603 C 264.097 95.271,261.614 93.875,259.184 92.500 C 256.754 91.125,254.658 90.000,254.526 90.000 C 254.395 90.000,253.548 89.651,252.644 89.223 C 243.852 85.070,235.397 82.203,225.439 79.999 C 220.786 78.968,219.619 75.770,220.772 67.200 C 221.456 62.116,221.503 62.268,219.300 62.485 C 215.759 62.833,209.771 66.383,203.164 72.050 C 201.468 73.505,200.816 73.856,200.464 73.504 C 199.696 72.736,199.926 63.883,200.882 57.400 C 201.033 56.376,198.701 56.116,197.200 56.990 M130.884 177.585 C 125.949 178.787,125.359 186.625,130.027 188.954 C 134.280 191.075,138.892 188.044,138.892 183.129 C 138.892 179.103,135.186 176.538,130.884 177.585 M251.400 177.379 C 251.180 177.462,250.513 177.637,249.917 177.768 C 249.226 177.920,248.369 178.682,247.550 179.872 C 242.756 186.841,252.694 193.452,257.761 186.665 C 260.676 182.761,255.839 175.700,251.400 177.379 M136.700 179.870 C 138.749 182.177,138.358 186.099,135.920 187.677 C 130.977 190.879,125.866 186.057,128.367 180.550 C 129.718 177.575,134.328 177.199,136.700 179.870 M254.400 178.419 C 258.989 179.780,258.770 187.087,254.102 188.376 C 251.785 189.016,249.345 188.214,248.229 186.445 C 245.209 181.659,248.944 176.802,254.400 178.419 M69.200 184.363 C 68.870 184.549,66.815 185.089,64.633 185.563 C 45.660 189.684,39.984 212.830,55.034 224.709 C 57.195 226.414,61.027 228.400,62.157 228.400 C 62.531 228.400,63.287 228.851,63.838 229.402 L 64.840 230.404 64.520 227.902 C 64.021 224.000,64.308 210.251,64.964 206.610 C 65.282 204.844,65.656 202.230,65.794 200.800 C 66.233 196.253,68.499 186.379,69.444 184.900 C 70.079 183.905,70.065 183.875,69.200 184.363 M331.600 184.239 C 331.600 184.319,331.847 185.062,332.148 185.892 C 333.159 188.673,333.953 191.774,334.560 195.308 C 334.891 197.237,335.252 198.960,335.360 199.136 C 336.675 201.262,337.341 226.455,336.172 229.801 C 335.904 230.567,335.916 230.569,336.469 229.861 C 336.786 229.455,338.014 228.782,339.198 228.365 C 359.907 221.072,358.687 190.353,337.508 185.825 C 336.129 185.531,334.235 185.020,333.300 184.691 C 332.365 184.363,331.600 184.159,331.600 184.239 M330.345 256.689 C 327.539 265.021,327.121 266.148,326.590 266.800 C 326.321 267.130,325.885 268.072,325.621 268.894 C 325.358 269.716,324.985 270.486,324.794 270.604 C 324.602 270.722,323.237 273.020,321.759 275.709 C 320.282 278.399,318.336 281.531,317.436 282.669 C 316.536 283.808,315.126 285.698,314.302 286.869 C 310.229 292.661,300.348 302.211,292.853 307.600 C 291.476 308.590,289.596 309.966,288.675 310.658 C 286.549 312.255,277.690 317.200,276.954 317.200 C 276.649 317.200,276.400 317.560,276.400 318.000 C 276.400 318.440,276.535 318.791,276.700 318.781 C 277.337 318.740,284.962 314.429,287.305 312.784 C 288.237 312.130,290.260 310.750,291.800 309.718 C 300.170 304.108,311.877 292.523,317.587 284.200 C 318.341 283.100,319.072 282.110,319.210 282.000 C 319.347 281.890,319.807 281.170,320.230 280.400 C 320.654 279.630,321.105 278.910,321.234 278.800 C 321.432 278.632,323.758 274.562,325.806 270.800 C 326.882 268.825,327.886 266.572,328.391 265.000 C 328.673 264.120,329.049 263.215,329.227 262.989 C 330.195 261.757,332.426 254.469,332.318 252.892 C 332.208 251.296,332.073 251.557,330.345 256.689 M68.816 252.746 C 68.794 254.578,70.083 258.508,72.442 263.800 C 72.834 264.680,73.523 266.390,73.972 267.600 C 74.710 269.584,78.073 275.668,81.049 280.400 C 81.672 281.390,83.265 283.617,84.591 285.348 C 85.916 287.080,87.397 289.043,87.883 289.711 C 91.301 294.418,103.146 305.327,109.714 309.818 C 110.987 310.688,113.147 312.164,114.514 313.098 C 115.881 314.032,117.166 314.797,117.369 314.798 C 117.571 314.799,118.021 315.051,118.369 315.357 C 118.939 315.861,125.002 319.200,125.346 319.200 C 125.425 319.200,125.403 318.750,125.298 318.200 C 125.147 317.409,124.866 317.200,123.953 317.200 C 123.319 317.200,122.800 317.028,122.800 316.819 C 122.800 316.609,122.035 316.065,121.100 315.609 C 120.165 315.154,118.320 314.153,117.000 313.384 C 115.680 312.615,114.330 311.865,114.000 311.717 C 113.670 311.569,112.360 310.586,111.089 309.532 C 109.818 308.479,108.378 307.406,107.889 307.148 C 107.400 306.891,106.910 306.568,106.800 306.431 C 106.690 306.294,106.150 305.890,105.600 305.533 C 105.050 305.176,103.326 303.740,101.768 302.342 C 100.211 300.944,98.411 299.337,97.768 298.771 C 96.185 297.376,89.141 289.757,87.734 287.916 C 87.110 287.101,86.150 285.788,85.600 285.000 C 83.465 281.941,82.442 280.567,81.669 279.718 C 81.227 279.233,80.742 278.423,80.591 277.918 C 80.440 277.413,80.028 276.550,79.675 276.000 C 77.966 273.337,74.400 266.221,74.400 265.473 C 74.400 265.171,74.058 264.614,73.640 264.236 C 73.221 263.857,72.756 262.891,72.605 262.088 C 72.455 261.285,72.052 260.086,71.710 259.425 C 71.367 258.764,70.842 257.170,70.542 255.883 C 70.242 254.597,69.734 253.062,69.414 252.472 L 68.832 251.400 68.816 252.746 M153.608 281.078 C 143.430 286.356,161.254 306.956,181.200 312.967 C 192.362 316.330,211.833 316.360,218.368 313.023 C 218.936 312.733,220.030 312.364,220.800 312.203 C 233.397 309.565,252.825 290.821,250.009 284.022 C 247.904 278.939,242.602 279.353,238.446 284.924 C 219.802 309.916,181.047 310.159,162.583 285.400 C 158.896 280.457,156.776 279.436,153.608 281.078 " stroke="none" fill="#c47b74" fill-rule="evenodd"></path><path id="path4" d="M199.600 56.356 C 201.058 56.618,201.118 56.773,200.633 59.000 C 200.407 60.034,200.462 59.992,201.030 58.695 C 201.842 56.841,201.324 55.974,199.451 56.053 L 198.200 56.105 199.600 56.356 M195.200 57.432 C 193.990 57.951,193.270 58.379,193.600 58.383 C 193.930 58.386,195.100 57.956,196.200 57.426 C 198.759 56.194,198.079 56.198,195.200 57.432 M217.666 62.351 C 217.355 62.548,217.980 62.608,219.166 62.494 C 221.180 62.300,221.200 62.309,221.228 63.449 C 221.252 64.437,221.302 64.486,221.579 63.800 C 222.187 62.290,219.394 61.255,217.666 62.351 M138.400 125.655 C 135.870 125.844,132.630 126.346,131.200 126.771 C 129.770 127.196,127.880 127.668,127.000 127.821 C 113.729 130.116,91.361 148.538,87.764 160.135 C 87.616 160.611,87.193 161.450,86.825 162.000 C 82.244 168.832,79.906 185.410,81.591 199.114 C 83.465 214.363,95.051 232.803,107.950 241.065 C 109.187 241.858,110.650 242.841,111.200 243.251 C 112.637 244.322,115.149 245.697,117.000 246.426 C 123.835 249.118,123.788 249.029,121.679 255.213 C 120.289 259.289,119.829 260.865,118.414 266.400 C 115.813 276.577,116.125 297.640,118.958 303.119 C 119.273 303.729,119.664 304.936,119.827 305.803 C 119.989 306.669,120.545 308.219,121.061 309.247 C 121.578 310.275,122.000 311.200,122.000 311.303 C 122.000 311.405,122.720 312.799,123.600 314.400 C 124.480 316.001,125.200 317.650,125.200 318.064 C 125.200 318.976,127.026 319.934,127.624 319.336 C 128.069 318.891,127.721 317.600,127.157 317.600 C 126.961 317.600,126.800 317.254,126.800 316.831 C 126.800 316.408,126.375 315.553,125.855 314.931 C 125.335 314.309,124.774 313.350,124.609 312.800 C 124.443 312.250,123.992 311.440,123.607 311.000 C 123.221 310.560,122.778 309.660,122.623 309.000 C 122.468 308.340,122.017 307.440,121.621 307.000 C 121.225 306.560,120.777 305.217,120.626 304.016 C 120.474 302.815,119.956 300.925,119.475 299.816 C 118.148 296.760,118.194 271.934,119.533 268.257 C 120.003 266.968,120.509 264.719,120.659 263.259 C 120.808 261.799,121.256 260.070,121.654 259.415 C 122.052 258.761,122.491 257.467,122.630 256.540 C 122.769 255.613,123.106 254.768,123.379 254.663 C 124.056 254.403,124.891 251.260,124.731 249.575 C 124.613 248.341,124.416 248.138,122.811 247.600 C 121.827 247.270,120.712 246.695,120.334 246.322 C 119.955 245.950,119.005 245.525,118.222 245.378 C 117.440 245.231,116.800 244.978,116.800 244.816 C 116.800 244.654,116.035 244.188,115.100 243.781 C 114.165 243.373,113.130 242.796,112.800 242.498 C 112.008 241.783,107.902 239.200,107.557 239.200 C 107.034 239.200,98.968 231.415,95.729 227.783 C 95.328 227.334,94.771 226.524,94.491 225.983 C 93.886 224.812,92.286 222.464,91.466 221.539 C 91.143 221.176,90.767 220.525,90.629 220.092 C 90.492 219.660,90.024 218.984,89.590 218.591 C 89.155 218.198,88.800 217.579,88.800 217.217 C 88.800 216.854,88.375 215.667,87.856 214.579 C 87.337 213.490,86.690 211.790,86.417 210.800 C 86.144 209.810,85.695 208.730,85.419 208.400 C 85.143 208.070,84.701 206.450,84.438 204.800 C 84.175 203.150,83.656 201.350,83.284 200.800 C 82.271 199.301,82.257 178.689,83.267 177.146 C 83.634 176.586,84.145 174.974,84.401 173.564 C 84.658 172.154,85.303 169.987,85.834 168.750 C 86.365 167.512,86.806 166.162,86.813 165.750 C 86.820 165.337,87.093 164.646,87.421 164.212 C 87.748 163.779,88.210 162.704,88.448 161.823 C 88.685 160.942,89.311 159.708,89.839 159.080 C 90.368 158.452,90.800 157.682,90.800 157.369 C 90.800 157.056,90.990 156.800,91.222 156.800 C 91.455 156.800,91.985 156.035,92.401 155.100 C 92.817 154.165,93.527 153.087,93.979 152.704 C 94.430 152.321,94.800 151.736,94.800 151.404 C 94.800 151.072,95.058 150.800,95.373 150.800 C 95.688 150.800,96.058 150.447,96.195 150.015 C 96.583 148.792,104.075 141.430,105.956 140.424 C 106.420 140.175,106.800 139.708,106.800 139.386 C 106.800 139.064,107.166 138.800,107.613 138.800 C 108.059 138.800,108.526 138.538,108.648 138.218 C 108.771 137.898,109.680 137.245,110.668 136.767 C 111.656 136.289,112.559 135.651,112.675 135.349 C 112.791 135.047,113.291 134.800,113.787 134.800 C 114.283 134.800,115.324 134.369,116.101 133.841 C 116.878 133.314,118.055 132.764,118.716 132.619 C 119.376 132.473,120.217 132.024,120.583 131.619 C 120.949 131.215,122.035 130.766,122.996 130.622 C 123.957 130.477,125.161 130.033,125.672 129.634 C 126.239 129.191,127.686 128.794,129.393 128.613 C 130.930 128.450,133.339 127.960,134.748 127.525 C 138.078 126.497,157.473 126.644,161.092 127.725 C 162.242 128.069,164.942 128.474,167.092 128.625 C 169.530 128.797,171.244 129.113,171.648 129.465 C 172.004 129.775,173.444 130.238,174.848 130.492 C 176.251 130.747,177.496 131.094,177.614 131.262 C 177.939 131.729,180.674 132.800,181.538 132.800 C 181.958 132.800,182.518 133.061,182.783 133.380 C 183.048 133.698,183.925 134.171,184.732 134.430 C 185.539 134.689,186.482 135.146,186.826 135.446 C 187.170 135.745,188.070 136.205,188.826 136.467 C 190.170 136.934,191.982 138.468,196.191 142.700 C 197.340 143.855,198.487 144.800,198.740 144.800 C 198.993 144.800,199.200 144.984,199.200 145.209 C 199.200 145.433,199.641 145.818,200.181 146.064 C 201.097 146.481,201.435 146.244,205.281 142.479 C 210.614 137.259,211.133 136.800,211.714 136.799 C 211.981 136.798,212.830 136.407,213.600 135.929 C 215.945 134.476,219.328 132.890,220.681 132.610 C 221.386 132.464,222.376 132.022,222.881 131.629 C 223.387 131.235,224.700 130.783,225.800 130.625 C 226.900 130.467,228.347 130.021,229.015 129.633 C 229.801 129.177,231.565 128.828,234.015 128.645 C 236.097 128.490,238.880 128.060,240.200 127.691 C 243.811 126.679,264.009 126.685,267.200 127.699 C 268.410 128.083,270.643 128.516,272.163 128.662 C 273.948 128.833,275.168 129.168,275.609 129.609 C 275.984 129.984,276.980 130.420,277.824 130.578 C 278.667 130.736,279.780 131.199,280.298 131.605 C 280.815 132.012,281.814 132.470,282.519 132.622 C 283.223 132.775,284.250 133.213,284.800 133.597 C 285.350 133.981,286.236 134.431,286.769 134.596 C 287.302 134.762,288.112 135.248,288.569 135.676 C 289.026 136.105,289.895 136.555,290.500 136.677 C 291.105 136.800,291.600 137.055,291.600 137.245 C 291.600 137.435,292.275 138.018,293.100 138.540 C 293.925 139.063,295.365 140.235,296.300 141.145 C 297.236 142.055,298.160 142.800,298.354 142.800 C 298.549 142.800,299.003 143.250,299.363 143.800 C 299.724 144.350,300.255 144.800,300.545 144.800 C 300.835 144.800,301.277 145.250,301.527 145.800 C 301.778 146.350,302.257 146.800,302.591 146.800 C 302.926 146.800,303.200 147.057,303.200 147.371 C 303.200 147.686,303.425 148.181,303.700 148.473 C 303.975 148.764,305.045 150.082,306.079 151.401 C 307.112 152.721,308.219 154.097,308.539 154.461 C 308.859 154.824,309.228 155.454,309.358 155.861 C 309.488 156.267,310.046 157.123,310.598 157.762 C 311.149 158.401,311.600 159.173,311.600 159.476 C 311.600 159.780,311.868 160.436,312.195 160.935 C 312.521 161.434,313.151 162.894,313.592 164.178 C 314.034 165.462,314.551 166.713,314.740 166.956 C 314.930 167.200,315.302 168.300,315.568 169.400 C 315.834 170.500,316.303 171.788,316.610 172.261 C 316.917 172.735,317.363 174.696,317.602 176.618 C 317.841 178.540,318.298 180.740,318.618 181.505 C 319.431 183.451,319.441 194.926,318.631 196.864 C 318.318 197.613,317.856 199.728,317.605 201.563 C 317.354 203.398,316.800 205.549,316.374 206.344 C 315.948 207.138,315.600 208.152,315.600 208.597 C 315.600 209.042,315.150 210.252,314.600 211.285 C 314.050 212.318,313.600 213.397,313.600 213.682 C 313.600 214.136,312.966 215.427,309.725 221.574 C 309.326 222.330,308.640 223.344,308.200 223.828 C 306.748 225.423,303.200 230.329,303.200 230.741 C 303.200 230.964,302.849 231.257,302.420 231.394 C 301.992 231.530,301.530 231.992,301.394 232.420 C 301.257 232.849,300.930 233.200,300.667 233.200 C 300.403 233.200,298.750 234.559,296.994 236.220 C 295.237 237.881,293.215 239.492,292.500 239.799 C 291.785 240.107,291.200 240.529,291.200 240.736 C 291.200 240.944,290.779 241.219,290.265 241.348 C 289.751 241.477,288.849 241.961,288.261 242.423 C 286.856 243.528,282.959 245.600,282.285 245.600 C 281.994 245.600,281.145 246.050,280.400 246.600 C 279.655 247.150,278.747 247.600,278.384 247.600 C 276.953 247.600,275.634 250.679,276.765 251.378 C 276.966 251.503,277.251 252.318,277.398 253.190 C 277.546 254.063,278.001 255.202,278.411 255.723 C 278.820 256.243,279.278 257.644,279.427 258.835 C 279.577 260.026,280.017 261.810,280.404 262.800 C 283.764 271.375,283.767 296.027,280.409 304.400 C 280.012 305.390,279.559 306.804,279.402 307.543 C 279.246 308.282,278.686 309.522,278.159 310.299 C 277.631 311.076,277.200 312.003,277.200 312.360 C 277.200 312.716,276.840 313.232,276.400 313.507 C 275.960 313.782,275.600 314.251,275.600 314.549 C 275.600 314.848,275.251 315.536,274.825 316.078 C 273.602 317.632,273.376 319.075,274.310 319.371 C 275.545 319.763,276.401 319.222,276.388 318.057 C 276.381 317.476,277.274 315.200,278.372 313.000 C 286.690 296.333,287.051 274.802,279.351 254.492 C 277.674 250.070,277.902 249.235,281.204 247.700 C 282.741 246.985,284.254 246.400,284.566 246.400 C 284.878 246.400,286.453 245.532,288.066 244.472 C 289.680 243.411,292.080 241.844,293.400 240.989 C 298.378 237.765,308.800 227.190,308.800 225.364 C 308.800 225.054,308.967 224.800,309.170 224.800 C 309.872 224.800,316.057 213.025,316.629 210.600 C 316.785 209.940,317.164 208.901,317.472 208.290 C 317.779 207.680,318.208 206.150,318.424 204.890 C 318.640 203.631,319.125 201.610,319.502 200.400 C 320.368 197.617,320.479 181.350,319.652 178.400 C 319.375 177.410,318.817 175.160,318.412 173.400 C 317.642 170.057,316.029 165.127,315.266 163.783 C 315.021 163.353,314.538 162.370,314.192 161.600 C 313.847 160.830,313.077 159.362,312.482 158.338 C 311.887 157.314,311.059 155.874,310.642 155.138 C 303.963 143.344,286.953 130.641,274.000 127.775 C 272.790 127.507,270.720 127.002,269.400 126.652 C 263.982 125.214,245.088 125.075,238.200 126.421 C 237.100 126.636,234.344 127.166,232.076 127.598 C 220.246 129.853,211.300 134.241,204.455 141.145 C 200.415 145.219,200.923 145.238,196.400 140.840 C 192.479 137.028,191.935 136.571,190.200 135.637 C 189.320 135.163,187.700 134.250,186.600 133.608 C 182.765 131.368,174.110 128.402,169.200 127.643 C 167.770 127.423,165.340 126.972,163.800 126.642 C 161.559 126.161,144.994 125.037,143.400 125.257 C 143.180 125.288,140.930 125.467,138.400 125.655 M137.107 149.588 C 135.623 149.740,134.097 150.139,133.707 150.478 C 133.318 150.817,131.924 151.214,130.609 151.361 C 129.294 151.508,127.664 151.955,126.986 152.355 C 126.309 152.755,125.121 153.201,124.347 153.346 C 123.573 153.491,122.556 153.968,122.087 154.405 C 121.617 154.842,121.071 155.200,120.872 155.200 C 120.514 155.200,118.569 156.587,116.145 158.572 C 115.455 159.138,114.700 159.600,114.468 159.600 C 114.235 159.600,113.810 159.931,113.523 160.337 C 113.235 160.742,112.595 161.288,112.100 161.551 C 111.605 161.813,111.200 162.280,111.200 162.587 C 111.200 162.895,110.849 163.257,110.420 163.394 C 109.992 163.530,109.530 163.992,109.393 164.421 C 109.257 164.850,108.798 165.387,108.373 165.614 C 107.948 165.842,107.600 166.220,107.600 166.454 C 107.600 166.688,107.105 167.364,106.500 167.957 C 105.034 169.395,103.878 171.058,103.449 172.346 C 103.256 172.926,102.782 173.760,102.395 174.200 C 102.008 174.640,101.560 175.450,101.399 176.000 C 101.237 176.550,100.845 177.297,100.527 177.660 C 100.209 178.023,99.704 179.248,99.405 180.382 C 99.105 181.517,98.684 182.660,98.467 182.923 C 96.573 185.222,96.379 205.046,98.203 210.027 C 98.560 211.002,99.106 212.699,99.416 213.798 C 99.726 214.897,100.254 215.996,100.590 216.242 C 100.925 216.487,101.200 216.958,101.200 217.288 C 101.200 217.618,101.632 218.525,102.160 219.303 C 102.688 220.081,103.248 221.121,103.404 221.613 C 103.741 222.676,106.256 226.063,107.046 226.520 C 107.351 226.696,107.600 227.068,107.600 227.348 C 107.600 227.627,108.005 228.239,108.500 228.708 C 109.603 229.753,110.134 230.285,111.483 231.700 C 112.060 232.305,112.772 232.800,113.066 232.800 C 113.360 232.800,113.600 232.951,113.600 233.134 C 113.600 233.442,114.808 234.453,118.955 237.614 C 119.810 238.267,120.789 238.800,121.129 238.800 C 121.470 238.800,122.130 239.159,122.597 239.597 C 123.072 240.044,124.310 240.513,125.413 240.664 C 126.608 240.828,127.621 241.231,127.994 241.692 C 128.366 242.152,129.316 242.531,130.404 242.655 C 131.392 242.767,132.920 243.251,133.800 243.730 C 136.235 245.054,152.037 245.061,154.800 243.739 C 155.790 243.265,157.455 242.759,158.499 242.614 C 159.725 242.445,160.535 242.096,160.784 241.630 C 161.022 241.185,161.809 240.824,162.846 240.685 C 163.768 240.561,165.028 240.086,165.645 239.630 C 166.263 239.173,167.020 238.800,167.329 238.800 C 167.637 238.800,168.561 238.267,169.380 237.616 C 170.200 236.965,171.214 236.322,171.635 236.189 C 172.056 236.055,172.400 235.783,172.400 235.583 C 172.400 235.384,172.940 234.941,173.600 234.600 C 174.260 234.259,174.800 233.727,174.800 233.418 C 174.800 233.108,175.205 232.798,175.700 232.728 C 176.278 232.646,176.646 232.278,176.728 231.700 C 176.811 231.117,177.131 230.800,177.638 230.800 C 178.092 230.800,178.571 230.404,178.779 229.855 C 178.977 229.335,179.512 228.812,179.969 228.692 C 180.477 228.559,180.800 228.149,180.800 227.637 C 180.800 227.154,181.058 226.800,181.409 226.800 C 181.743 226.800,182.238 226.312,182.509 225.715 C 182.779 225.118,183.405 224.192,183.900 223.657 C 184.395 223.121,184.800 222.358,184.800 221.960 C 184.800 221.562,185.250 220.786,185.800 220.236 C 186.350 219.686,186.800 218.925,186.800 218.544 C 186.800 218.163,187.175 217.453,187.633 216.965 C 188.091 216.478,188.565 215.341,188.685 214.439 C 188.806 213.538,189.066 212.800,189.263 212.800 C 189.814 212.800,190.409 210.903,190.777 207.972 C 191.011 206.110,191.387 204.991,192.028 204.254 L 192.944 203.200 200.183 203.200 C 208.926 203.200,208.910 203.193,209.583 207.093 C 209.840 208.582,210.296 210.179,210.596 210.642 C 210.896 211.104,211.263 212.129,211.411 212.918 C 211.559 213.708,212.112 214.939,212.640 215.654 C 213.168 216.370,213.600 217.245,213.600 217.600 C 213.600 217.955,214.050 218.855,214.600 219.600 C 215.150 220.345,215.600 221.272,215.600 221.658 C 215.600 222.044,215.827 222.504,216.104 222.680 C 216.536 222.955,217.958 224.879,219.411 227.156 C 219.953 228.006,224.648 232.800,224.938 232.800 C 225.062 232.800,225.596 233.205,226.125 233.700 C 228.053 235.506,229.784 236.800,230.272 236.800 C 230.547 236.800,230.960 237.152,231.191 237.583 C 231.422 238.014,232.224 238.481,232.979 238.622 C 233.732 238.764,234.655 239.219,235.030 239.633 C 235.427 240.072,236.527 240.495,237.656 240.645 C 238.725 240.787,239.600 241.069,239.600 241.272 C 239.600 241.807,242.175 242.800,243.564 242.800 C 244.219 242.800,245.440 243.205,246.277 243.700 C 248.563 245.051,263.988 245.082,266.800 243.742 C 267.790 243.270,269.408 242.786,270.396 242.667 C 271.474 242.537,272.438 242.146,272.808 241.690 C 273.164 241.250,274.162 240.830,275.173 240.694 C 276.136 240.565,277.428 240.086,278.045 239.630 C 278.663 239.173,279.357 238.800,279.588 238.800 C 280.164 238.800,284.800 235.608,284.800 235.212 C 284.800 235.036,285.173 234.796,285.630 234.676 C 286.086 234.557,286.557 234.086,286.676 233.630 C 286.800 233.156,287.221 232.800,287.655 232.800 C 288.080 232.800,288.619 232.357,288.873 231.800 C 289.123 231.250,289.514 230.800,289.741 230.800 C 290.156 230.800,292.310 228.574,293.800 226.607 C 294.240 226.026,294.980 225.191,295.444 224.752 C 295.908 224.313,296.521 223.244,296.808 222.377 C 297.094 221.510,297.475 220.800,297.655 220.800 C 297.834 220.800,298.317 220.125,298.728 219.300 C 299.139 218.475,299.754 217.260,300.095 216.600 C 301.704 213.487,302.447 211.304,302.992 208.089 C 303.317 206.170,303.763 203.880,303.982 203.000 C 304.489 200.968,304.501 193.105,304.001 191.000 C 303.792 190.120,303.326 187.690,302.966 185.600 C 302.606 183.510,301.997 181.170,301.612 180.400 C 301.228 179.630,300.798 178.518,300.656 177.928 C 300.515 177.338,300.142 176.600,299.829 176.286 C 299.516 175.973,298.964 175.105,298.603 174.358 C 296.874 170.780,295.937 169.317,294.186 167.462 C 293.738 166.988,292.764 165.817,292.021 164.861 C 291.278 163.904,289.575 162.246,288.235 161.176 C 286.896 160.107,285.440 158.906,285.000 158.508 C 284.560 158.110,283.435 157.293,282.500 156.692 C 281.565 156.092,280.125 155.168,279.300 154.640 C 278.475 154.112,277.350 153.555,276.800 153.403 C 276.250 153.251,275.056 152.777,274.146 152.350 C 273.236 151.923,271.526 151.465,270.346 151.333 C 269.166 151.201,267.888 150.821,267.506 150.489 C 265.696 148.917,247.524 148.896,245.723 150.464 C 245.326 150.810,243.933 151.213,242.628 151.359 C 241.323 151.505,239.703 151.955,239.028 152.361 C 238.353 152.766,237.282 153.220,236.649 153.369 C 236.015 153.519,234.848 154.082,234.056 154.621 C 233.263 155.159,232.392 155.600,232.121 155.600 C 231.850 155.600,231.435 155.960,231.200 156.400 C 230.965 156.840,230.536 157.200,230.248 157.200 C 229.960 157.200,229.382 157.578,228.963 158.041 C 228.544 158.503,227.661 159.155,227.001 159.489 C 226.340 159.823,224.810 161.125,223.600 162.383 C 218.352 167.836,217.146 169.391,215.633 172.656 C 215.211 173.567,214.684 174.424,214.462 174.562 C 214.240 174.699,213.842 175.484,213.579 176.306 C 213.315 177.128,212.843 178.094,212.530 178.453 C 212.218 178.812,211.776 179.802,211.550 180.653 C 211.324 181.504,210.809 182.920,210.407 183.800 C 210.005 184.680,209.559 186.411,209.416 187.646 C 209.061 190.709,208.792 190.800,200.051 190.800 C 191.440 190.800,191.434 190.797,190.816 185.930 C 190.442 182.974,189.752 180.800,189.188 180.800 C 189.033 180.800,188.806 180.062,188.685 179.161 C 188.565 178.259,188.091 177.122,187.633 176.635 C 187.175 176.147,186.800 175.436,186.800 175.055 C 186.800 174.674,186.374 173.965,185.852 173.481 C 185.331 172.996,184.775 172.006,184.616 171.281 C 184.458 170.555,183.984 169.747,183.564 169.485 C 183.144 169.222,182.800 168.792,182.800 168.529 C 182.800 167.817,174.868 159.675,173.865 159.358 C 173.389 159.208,172.765 158.751,172.477 158.343 C 172.190 157.934,171.701 157.600,171.391 157.600 C 171.082 157.600,170.649 157.265,170.429 156.855 C 170.210 156.445,169.439 155.872,168.715 155.582 C 167.992 155.292,166.987 154.739,166.481 154.355 C 165.976 153.970,164.986 153.533,164.281 153.383 C 163.577 153.233,162.727 152.871,162.394 152.579 C 161.687 151.958,158.757 151.224,156.929 151.210 C 156.229 151.204,155.362 150.905,155.001 150.544 C 153.847 149.390,144.135 148.871,137.107 149.588 M154.562 151.591 C 159.029 152.677,161.728 153.635,165.600 155.510 C 166.370 155.882,168.890 157.489,171.200 159.081 C 179.748 164.969,185.746 173.400,188.929 184.000 C 189.491 185.870,190.060 188.124,190.195 189.008 C 190.639 191.928,190.180 191.800,200.171 191.800 C 210.719 191.800,209.902 192.168,211.170 186.850 C 213.425 177.393,218.540 168.587,225.400 162.350 C 229.631 158.503,239.683 152.841,243.445 152.186 C 244.300 152.037,246.339 151.574,247.975 151.158 C 251.693 150.211,260.684 150.103,264.016 150.965 C 265.217 151.276,267.229 151.719,268.487 151.949 C 269.744 152.179,271.580 152.735,272.565 153.184 C 273.550 153.633,274.480 154.000,274.631 154.000 C 275.087 154.000,280.150 156.655,281.698 157.705 C 286.566 161.009,294.153 168.524,295.680 171.555 C 295.969 172.130,296.869 173.770,297.679 175.200 C 306.189 190.215,303.944 212.529,292.567 226.013 C 267.090 256.210,220.858 245.531,211.192 207.216 C 209.817 201.766,210.310 202.003,200.400 202.046 C 190.452 202.089,190.716 202.012,190.157 205.018 C 183.007 243.428,133.709 256.925,109.202 227.182 C 108.213 225.982,107.177 224.762,106.900 224.470 C 105.808 223.320,104.067 220.439,102.504 217.200 C 97.311 206.433,96.552 193.419,100.429 181.600 C 101.228 179.164,101.619 178.292,103.758 174.183 C 107.313 167.356,116.333 158.724,123.400 155.386 C 128.152 153.142,131.059 152.000,132.050 151.989 C 132.573 151.984,134.260 151.635,135.800 151.214 C 140.487 149.932,148.396 150.091,154.562 151.591 M144.536 161.470 C 144.351 161.522,142.130 161.835,139.600 162.166 C 136.778 162.535,134.073 163.156,132.600 163.774 C 131.280 164.328,129.975 164.785,129.700 164.791 C 129.425 164.796,128.845 165.155,128.410 165.590 C 127.976 166.024,127.121 166.500,126.510 166.646 C 125.900 166.793,125.078 167.247,124.684 167.656 C 124.291 168.065,123.811 168.400,123.618 168.400 C 123.196 168.400,118.530 173.037,117.400 174.578 C 116.960 175.179,116.195 176.080,115.700 176.581 C 115.205 177.082,114.800 177.671,114.800 177.890 C 114.800 178.109,114.368 178.925,113.840 179.703 C 113.312 180.481,112.753 181.541,112.599 182.059 C 112.444 182.576,111.985 183.720,111.579 184.600 C 109.159 189.844,109.178 204.064,111.612 208.800 C 112.008 209.570,112.457 210.875,112.610 211.700 C 112.764 212.525,113.045 213.200,113.236 213.200 C 113.427 213.200,113.955 213.875,114.408 214.700 C 115.461 216.617,116.750 218.391,118.837 220.798 C 119.752 221.852,120.613 222.869,120.750 223.057 C 120.888 223.246,121.299 223.580,121.664 223.800 C 122.030 224.020,123.423 224.965,124.760 225.900 C 126.097 226.835,127.302 227.600,127.438 227.600 C 127.573 227.600,128.219 228.050,128.873 228.600 C 129.527 229.150,130.543 229.713,131.131 229.851 C 131.719 229.990,132.757 230.437,133.438 230.846 C 138.424 233.837,155.722 232.921,160.400 229.418 C 160.730 229.171,161.630 228.684,162.400 228.336 C 176.300 222.063,184.224 201.915,178.736 186.800 C 178.297 185.590,177.778 184.083,177.583 183.451 C 177.387 182.819,176.936 181.857,176.580 181.313 C 176.223 180.769,175.722 179.734,175.466 179.014 C 174.265 175.635,166.608 168.196,162.284 166.207 C 161.578 165.882,160.730 165.438,160.400 165.221 C 158.087 163.698,146.422 160.940,144.536 161.470 M250.600 162.174 C 248.620 162.443,245.830 163.119,244.400 163.677 C 240.877 165.051,240.769 165.101,239.400 165.975 C 238.740 166.397,237.885 166.755,237.500 166.771 C 237.115 166.787,236.800 166.975,236.800 167.190 C 236.800 167.404,236.244 167.867,235.565 168.218 C 232.617 169.743,224.400 179.577,224.400 181.581 C 224.400 181.861,224.061 182.746,223.646 183.546 C 220.941 188.767,219.934 201.351,221.770 207.000 C 224.527 215.483,231.995 225.264,237.600 227.731 C 238.150 227.974,239.230 228.549,240.000 229.010 C 246.973 233.186,262.206 234.020,268.675 230.581 C 269.689 230.041,270.740 229.600,271.011 229.600 C 271.281 229.600,271.719 229.339,271.984 229.020 C 272.248 228.701,273.466 227.875,274.689 227.185 C 278.713 224.913,281.129 222.737,284.400 218.436 C 284.950 217.713,285.810 216.613,286.310 215.991 C 286.811 215.369,287.422 214.261,287.668 213.530 C 287.915 212.798,288.309 211.955,288.545 211.655 C 290.699 208.914,292.283 196.574,291.221 190.800 C 290.745 188.207,289.145 183.103,288.588 182.400 C 288.327 182.070,287.920 181.224,287.685 180.521 C 286.752 177.736,279.517 169.421,276.979 168.217 C 276.220 167.857,275.600 167.405,275.600 167.213 C 275.600 167.021,275.084 166.750,274.454 166.612 C 273.824 166.473,272.945 166.022,272.501 165.608 C 272.057 165.194,270.908 164.649,269.947 164.395 C 268.986 164.142,267.794 163.675,267.299 163.357 C 265.167 161.992,256.476 161.376,250.600 162.174 M76.703 162.700 C 75.728 163.800,73.200 168.786,73.200 169.610 C 73.200 170.020,72.861 170.950,72.447 171.677 C 72.032 172.405,71.581 173.756,71.445 174.680 C 71.309 175.603,70.859 176.953,70.445 177.680 C 70.031 178.406,69.573 179.810,69.426 180.800 C 69.257 181.936,68.770 183.005,68.104 183.700 C 67.073 184.777,67.069 184.800,67.925 184.800 C 68.967 184.800,70.393 183.484,70.418 182.500 C 70.427 182.115,70.709 181.080,71.044 180.200 C 71.379 179.320,71.928 177.610,72.264 176.400 C 72.600 175.190,73.120 173.750,73.420 173.200 C 74.239 171.696,76.014 167.236,76.604 165.200 C 76.890 164.210,77.251 163.085,77.405 162.700 C 77.559 162.315,77.604 162.000,77.505 162.000 C 77.405 162.000,77.045 162.315,76.703 162.700 M324.012 162.941 C 324.005 163.569,324.900 166.115,326.000 168.600 C 327.100 171.085,328.000 173.402,328.000 173.748 C 328.000 174.095,328.350 175.148,328.778 176.089 C 329.206 177.030,329.924 179.081,330.373 180.647 C 331.266 183.757,331.656 184.249,333.661 184.804 C 334.888 185.143,334.935 185.125,334.224 184.587 C 333.796 184.264,333.330 184.000,333.187 184.000 C 333.044 184.000,332.709 183.024,332.442 181.831 C 332.175 180.638,331.720 179.465,331.430 179.225 C 331.141 178.985,330.804 178.043,330.682 177.133 C 330.560 176.222,330.086 174.972,329.630 174.355 C 329.173 173.737,328.800 172.716,328.800 172.084 C 328.800 171.452,328.351 170.050,327.802 168.968 C 327.253 167.886,326.803 166.699,326.802 166.331 C 326.801 165.963,326.379 165.153,325.864 164.531 C 325.349 163.909,324.725 163.040,324.476 162.600 C 324.058 161.860,324.023 161.886,324.012 162.941 M143.073 169.568 C 150.198 170.395,158.943 176.787,160.616 182.392 C 160.779 182.938,161.242 183.838,161.644 184.392 C 163.439 186.863,163.446 198.719,161.654 201.200 C 161.257 201.750,160.799 202.734,160.637 203.386 C 159.691 207.189,151.130 214.800,147.799 214.800 C 147.454 214.800,146.691 215.115,146.104 215.500 C 145.224 216.077,144.113 216.200,139.801 216.200 C 135.490 216.200,134.378 216.077,133.497 215.500 C 132.909 215.115,132.031 214.800,131.546 214.800 C 130.580 214.800,126.672 212.750,125.400 211.576 C 124.196 210.465,121.232 207.481,120.655 206.800 C 120.038 206.071,118.366 202.591,117.196 199.600 C 115.376 194.946,116.139 185.561,118.559 182.832 C 118.868 182.485,119.387 181.570,119.713 180.800 C 121.760 175.969,130.109 170.281,136.170 169.587 C 139.588 169.196,139.860 169.196,143.073 169.568 M263.259 169.569 C 266.857 170.033,270.918 171.726,273.523 173.848 C 274.708 174.814,275.899 175.738,276.170 175.902 C 277.155 176.500,280.294 180.722,280.570 181.821 C 280.726 182.443,281.178 183.412,281.576 183.976 C 284.795 188.536,283.494 200.017,279.012 206.600 C 276.902 209.700,271.103 214.257,268.801 214.625 C 268.030 214.747,266.860 215.152,266.200 215.524 C 264.499 216.482,255.040 216.509,253.582 215.560 C 253.042 215.209,251.943 214.799,251.141 214.650 C 250.338 214.501,249.230 214.024,248.677 213.589 C 248.125 213.155,247.478 212.800,247.239 212.800 C 246.447 212.800,240.188 206.226,239.623 204.800 C 239.318 204.030,238.852 203.130,238.588 202.800 C 236.504 200.195,235.596 191.805,236.922 187.400 C 238.964 180.620,241.512 177.155,247.809 172.600 C 251.270 170.097,257.648 168.845,263.259 169.569 M177.188 209.300 C 177.178 210.625,177.088 210.849,176.776 210.315 C 176.424 209.711,176.632 207.600,177.043 207.600 C 177.130 207.600,177.195 208.365,177.188 209.300 M225.597 211.584 C 225.824 212.827,225.767 213.200,225.346 213.200 C 224.963 213.200,224.800 212.644,224.800 211.333 C 224.800 209.157,225.175 209.275,225.597 211.584 M175.333 213.738 C 175.186 214.643,174.873 215.200,174.513 215.200 C 174.193 215.200,173.727 215.740,173.478 216.400 C 173.228 217.060,172.788 217.600,172.500 217.600 C 172.211 217.600,171.859 217.915,171.717 218.300 C 171.576 218.685,171.086 219.375,170.630 219.833 C 170.173 220.291,169.326 221.230,168.748 221.920 C 168.169 222.609,167.224 223.389,166.648 223.651 C 166.071 223.914,165.600 224.355,165.600 224.632 C 165.600 224.910,165.060 225.255,164.400 225.400 C 163.741 225.545,162.960 226.008,162.665 226.429 C 162.370 226.850,161.536 227.313,160.811 227.458 C 160.023 227.615,159.417 228.013,159.304 228.446 C 159.159 229.001,158.553 229.233,156.705 229.443 C 154.831 229.655,154.252 229.880,154.101 230.458 C 153.925 231.131,153.472 231.196,149.253 231.154 L 144.600 231.108 147.973 230.582 C 149.828 230.293,151.988 229.788,152.773 229.460 C 153.558 229.132,155.145 228.544,156.300 228.153 C 157.455 227.762,158.400 227.298,158.400 227.121 C 158.400 226.944,158.598 226.800,158.840 226.800 C 160.713 226.800,167.776 221.063,171.718 216.339 C 173.488 214.219,173.557 214.118,174.275 212.611 C 175.101 210.879,175.694 211.511,175.333 213.738 M227.987 215.057 C 227.994 215.309,227.730 215.618,227.400 215.745 C 226.934 215.923,226.800 215.648,226.800 214.511 C 226.800 213.078,227.947 213.605,227.987 215.057 M229.772 217.729 C 229.630 218.098,229.375 218.400,229.204 218.400 C 228.793 218.400,228.376 216.763,228.667 216.292 C 229.041 215.687,230.051 217.001,229.772 217.729 M231.571 219.145 C 231.790 219.555,232.877 220.582,233.985 221.428 C 235.093 222.273,236.000 223.161,236.000 223.402 C 236.000 223.642,236.642 224.071,237.426 224.355 C 238.210 224.639,238.946 225.114,239.060 225.411 C 239.174 225.708,239.777 226.063,240.401 226.200 C 241.024 226.337,241.918 226.782,242.388 227.190 C 242.858 227.597,244.178 228.152,245.321 228.423 C 246.464 228.694,247.492 229.056,247.604 229.226 C 247.778 229.491,251.799 230.394,255.200 230.933 C 255.750 231.020,254.187 231.116,251.727 231.146 C 247.664 231.195,247.232 231.131,247.014 230.443 C 246.749 229.610,245.688 229.214,243.700 229.205 C 242.695 229.201,242.400 229.029,242.400 228.445 C 242.400 227.860,242.005 227.632,240.642 227.427 C 239.366 227.236,238.828 226.949,238.679 226.382 C 238.564 225.942,238.132 225.600,237.692 225.600 C 237.262 225.600,236.231 225.060,235.400 224.400 C 234.569 223.740,233.666 223.200,233.392 223.200 C 233.118 223.200,232.796 222.827,232.676 222.370 C 232.557 221.914,232.086 221.443,231.630 221.324 C 231.173 221.204,230.800 220.779,230.800 220.377 C 230.800 219.976,230.620 219.536,230.400 219.400 C 229.801 219.030,229.918 218.400,230.586 218.400 C 230.908 218.400,231.351 218.735,231.571 219.145 M63.477 231.505 C 63.579 232.987,64.008 235.629,64.431 237.376 C 64.854 239.123,65.200 241.178,65.200 241.943 C 65.200 244.684,66.085 248.332,67.407 251.043 C 69.144 254.603,69.311 253.059,67.818 247.232 C 67.278 245.125,66.455 240.797,65.988 237.616 C 64.858 229.906,63.070 225.557,63.477 231.505 M336.657 229.700 C 336.343 230.203,335.987 232.235,335.851 234.306 C 335.717 236.344,335.246 239.393,334.804 241.081 C 334.362 242.769,334.000 244.633,334.000 245.223 C 334.000 245.813,333.640 247.423,333.200 248.800 C 332.760 250.177,332.421 251.956,332.446 252.752 C 332.472 253.548,332.578 253.869,332.683 253.464 C 332.787 253.060,333.306 252.090,333.836 251.309 C 334.366 250.527,334.802 249.328,334.805 248.644 C 334.808 247.960,335.179 246.230,335.630 244.800 C 336.189 243.028,336.519 240.609,336.667 237.200 C 336.831 233.416,337.068 231.832,337.642 230.688 C 338.706 228.564,337.882 227.737,336.657 229.700 M181.238 243.885 C 178.953 244.790,175.701 247.830,175.360 249.381 C 175.214 250.045,174.852 250.960,174.554 251.414 C 173.709 252.703,173.810 255.582,174.762 257.385 C 175.223 258.256,175.601 259.156,175.602 259.385 C 175.605 259.960,178.260 262.800,178.796 262.800 C 179.036 262.800,179.728 263.166,180.333 263.614 C 181.865 264.746,187.219 264.817,188.761 263.725 C 189.332 263.320,190.275 262.746,190.856 262.450 C 191.437 262.154,192.149 261.437,192.438 260.856 C 192.727 260.275,193.332 259.381,193.782 258.868 C 195.049 257.425,194.992 250.884,193.700 249.507 C 193.205 248.980,192.800 248.370,192.800 248.153 C 192.800 247.695,190.487 245.447,189.600 245.042 C 189.270 244.892,188.550 244.508,188.000 244.190 C 187.018 243.622,182.426 243.415,181.238 243.885 M213.238 243.885 C 211.563 244.549,207.611 247.845,207.587 248.599 C 207.581 248.819,207.132 249.900,206.591 251.000 C 205.344 253.535,205.346 255.003,206.600 257.362 C 207.150 258.396,207.600 259.429,207.600 259.657 C 207.600 262.911,217.335 265.930,220.436 263.637 C 221.058 263.177,221.836 262.800,222.163 262.800 C 222.746 262.800,224.800 260.454,224.800 259.788 C 224.800 259.603,225.168 259.059,225.619 258.580 C 227.265 256.828,226.941 249.200,225.220 249.200 C 224.989 249.200,224.800 248.875,224.800 248.478 C 224.800 247.764,222.756 245.569,221.600 245.042 C 221.270 244.892,220.550 244.508,220.000 244.190 C 219.018 243.622,214.426 243.415,213.238 243.885 M187.985 246.058 C 198.125 250.445,192.570 265.915,182.043 262.605 C 174.226 260.146,173.378 249.244,180.758 246.096 C 184.014 244.707,184.852 244.702,187.985 246.058 M219.348 245.823 C 227.203 248.968,227.469 258.621,219.800 262.247 C 214.315 264.840,207.600 260.500,207.600 254.363 C 207.600 247.696,213.434 243.456,219.348 245.823 " stroke="none" fill="#c38669" fill-rule="evenodd"></path></g></svg>